<svg width="180" height="130" viewBox="0 0 180 130" fill="none" xmlns="http://www.w3.org/2000/svg">
<path d="M83.327 0.43779C72.5817 1.90042 63.1027 6.49242 55.6426 13.8056C52.8023 16.5948 49.0038 21.629 49.2433 22.2753C49.346 22.5474 49.3118 22.6494 49.1065 22.5474C48.6958 22.2753 47.635 24.3161 47.943 24.8264C48.0798 25.0305 48.0456 25.0985 47.8403 24.9964C47.3954 24.7243 45.8555 27.9557 46.1977 28.534C46.3688 28.7721 46.3346 28.8741 46.0951 28.704C45.6502 28.4319 44.8631 30.6769 45.1369 31.4252C45.2395 31.6973 45.2053 31.8674 45.0342 31.7654C44.6236 31.4933 43.8365 34.7587 44.076 35.6431C44.1787 36.0172 44.1445 36.2553 43.9734 36.1533C43.8365 36.0853 43.6312 36.7996 43.4943 37.786C43.0836 41.1875 43.289 45.6434 43.9734 48.7387C44.3498 50.4055 44.7262 52.2083 44.7947 52.7185C44.8289 53.1947 45.1711 54.045 45.5475 54.5893C46.0608 55.4056 46.1977 55.4397 46.3004 54.9294C46.3688 54.5893 46.1977 54.045 45.8897 53.7049C44.8289 52.5484 45.3422 52.5144 46.5399 53.6709L47.7376 54.8274L46.9163 55.6778C46.4715 56.188 45.8555 56.9703 45.5133 57.5145L44.9316 58.433L43.2205 57.1744C41.7833 56.154 41.5437 56.0519 41.8859 56.6982C42.4677 57.7527 42.1255 58.433 41.0304 58.433C40.2091 58.433 40.2776 58.569 42.0228 59.9976C43.9392 61.5623 43.9392 61.5623 43.4943 62.6168C43.0494 63.7393 42.7414 63.8413 41.2357 63.3651C40.4144 63.127 40.4144 63.127 41.0646 63.6712C41.7148 64.1814 41.6806 64.1814 40.3802 64.2155C39.1825 64.2155 37.2662 64.8617 38.3954 64.8958C38.635 64.8958 39.4563 65.44 40.2091 66.1203C41.7491 67.5149 41.9544 68.6034 40.9278 69.6238C40.4487 70.1 40.3802 70.3381 40.654 70.4742C40.8935 70.5762 40.038 70.5762 38.7376 70.5082L36.4449 70.3381L37.5399 71.2905C38.943 72.481 40.2776 73.3994 40.6198 73.3994C40.7909 73.3994 40.8935 73.1613 40.8935 72.8212C40.8935 72.5151 40.9962 72.345 41.0989 72.481C41.2357 72.5831 41.2015 73.2294 41.0989 73.8756C40.8935 74.9641 40.7909 75.0662 39.0798 75.3043C38.0875 75.4403 37.1977 75.6104 37.0608 75.6444C36.8897 75.6784 36.4449 75.7124 36.0342 75.7465C35.3156 75.7805 35.3156 75.8145 35.5551 80.7806C35.6578 83.5699 35.8631 86.3251 35.9658 86.9033C36.1369 87.7537 36.0684 88.0258 35.6578 88.0258C35.384 88.0258 35.076 88.3319 34.9734 88.7061C34.3232 91.1551 33.1597 86.0529 32.8175 79.0799L32.5779 74.76H24.057C16.1521 74.76 14.1331 74.9981 16.9049 75.6104C17.4183 75.7124 18.3422 76.2227 18.924 76.7329C20.1559 77.7873 20.8745 80.1003 21.1825 84.1821L21.3536 86.6652H19.3346C17.0418 86.6652 17.1445 86.7672 16.8365 83.5018C16.7338 82.6174 16.597 81.7671 16.4601 81.665C16.1521 81.3589 11.9772 82.7875 9.92395 83.876C9 84.3862 8.07605 85.1345 7.87072 85.5427C7.56274 86.257 7.28897 86.3251 3.79848 86.3931L0.0342205 86.4951L2.22433 88.2299C3.45627 89.1823 5.44106 90.849 6.63878 91.9375C9.1711 94.2845 14.5437 100.577 14.5437 101.224C14.5437 101.904 8.14449 108.163 5.98859 109.591L4.10646 110.816H13.7224C19.2319 110.816 23.4411 110.952 23.6464 111.122C23.8175 111.326 24.7414 111.53 25.6654 111.598C26.6236 111.666 21.6274 111.734 14.5779 111.768L1.74525 111.802L0.889734 112.686L0 113.537L16.4259 113.571C25.4601 113.605 32.4753 113.741 31.9962 113.877C31.5171 114.013 31.3118 114.149 31.4829 114.183C31.6882 114.217 32.2357 114.591 32.7148 114.999C33.5019 115.748 33.981 115.85 38.327 116.02C40.962 116.156 45.2738 116.292 47.9087 116.292L52.6996 116.36L54.1711 117.653C59.3042 122.109 67.7567 126.53 74.2586 128.129C80.7947 129.728 83.2928 130 90.5133 130C96.3308 129.966 97.7338 129.864 101.464 129.082C110.259 127.245 118.745 123.401 125.076 118.367C125.932 117.687 126.411 117.415 126.137 117.789C125.897 118.163 126.034 118.095 126.479 117.619C126.924 117.142 127.369 116.734 127.471 116.7C127.574 116.666 127.882 116.564 128.156 116.462C128.43 116.394 132.639 116.224 137.464 116.156C145.163 115.986 146.395 115.918 147.388 115.34C148.004 114.999 148.586 114.625 148.62 114.455C148.688 114.319 148.962 114.217 149.236 114.217C149.544 114.217 149.646 114.081 149.544 113.877C149.407 113.639 154.54 113.537 164.669 113.537L180 113.503L179.042 112.686L178.084 111.836L168.091 111.768C162.24 111.734 159.16 111.632 160.665 111.496L163.232 111.292L161.008 111.156C159.776 111.054 162.548 110.918 167.167 110.816L175.551 110.646L173.669 109.489C171.445 108.129 165.114 101.938 165.114 101.087C165.114 99.8629 171.582 92.9239 176.167 89.3183C177.81 87.9918 179.144 86.8693 179.144 86.8353C179.144 86.8013 178.529 86.8353 177.741 86.9033C176.989 87.0053 175.517 86.9713 174.525 86.8353C172.916 86.6652 172.677 86.5291 172.471 85.7468C172.027 83.944 171.034 83.0256 169.152 82.5834C168.16 82.3793 166.757 81.9712 166.038 81.699C164.224 81.0187 162.479 81.0868 162.24 81.8011C162.103 82.3453 161.35 86.291 161.35 86.5632C161.35 86.6312 160.529 86.6652 159.57 86.5972L157.757 86.4951L157.654 84.9645C157.551 83.3318 157.962 80.8487 158.338 80.8487C158.646 80.8147 161.042 78.7738 163.3 76.5628C164.669 75.2362 165.49 74.76 166.586 74.5559L168.023 74.2838L166.654 74.0457C165.901 73.9097 162.376 73.6375 158.783 73.4335C155.224 73.2294 151.084 72.9913 149.646 72.8892L146.977 72.7532V74.76C146.977 77.3111 146.395 77.2431 145.095 74.4879C144.582 73.4335 143.966 72.1749 143.692 71.6987C143.418 71.0864 143.35 70.6442 143.589 70.3381C143.897 69.8959 143.932 69.8959 143.863 70.3381C143.829 70.6102 143.897 71.1205 144.034 71.4266C144.308 72.0048 145.369 72.0389 159.331 72.0389C168.741 72.0389 174.354 71.9028 174.354 71.6987C174.354 71.5286 174.046 71.2225 173.669 71.0184C173.156 70.7463 172.985 70.3041 172.985 69.2837C172.985 68.4673 173.122 67.9911 173.327 68.1272C173.532 68.2632 173.669 67.9231 173.669 67.3788C173.669 66.0523 173.875 65.8482 176.749 63.7052C178.563 62.3447 179.076 61.8344 178.529 61.8344C178.152 61.8344 177.673 62.0725 177.502 62.4127C177.057 63.195 174.593 63.3311 166.586 62.9909L159.81 62.7188L163.369 62.4807C165.285 62.3447 166.962 62.1406 167.03 62.0725C167.236 61.8684 149.749 61.4262 144.958 61.5283L141.057 61.5623L139.38 58.0588C138.456 56.1199 137.601 54.6913 137.464 54.8614C137.327 55.0655 136.506 55.8478 135.65 56.6642L134.11 58.0928L132.947 56.5281L131.817 54.9294L132.776 54.1471C133.494 53.6029 133.837 53.4668 134.008 53.7389C134.213 54.045 134.487 54.045 135.137 53.7389C136.129 53.2967 136.3 52.4804 135.513 52.0382C135.034 51.8001 135.068 51.4259 135.684 48.8748C136.916 43.7726 136.506 36.7315 134.624 30.6769C134.179 29.2483 133.802 28.568 133.563 28.704C133.289 28.8741 133.255 28.7381 133.392 28.3979C133.665 27.6836 133.323 26.7312 132.913 27.0033C132.741 27.1054 132.707 26.9353 132.81 26.6632C133.084 25.9829 130.278 20.9487 129.798 21.2208C129.559 21.3569 129.525 21.2888 129.662 21.0507C130.278 20.0983 121.825 10.7783 120.901 11.3565C120.696 11.4926 120.627 11.4586 120.764 11.2205C121.072 10.7102 116.179 7.34278 112.209 5.36993C103.209 0.811951 93.1825 -0.888794 83.327 0.43779ZM97.8365 4.8597C107.589 6.56045 117.513 11.9348 123.262 18.6017C128.738 24.9624 131.749 32.1736 132.433 40.5752C132.707 43.8066 132.16 48.4666 131.373 49.9973C131.065 50.6096 129.901 52.0382 128.806 53.1947L126.787 55.2356L128.019 56.4261C131.099 59.3173 133.905 64.8958 134.966 70.3041C135.582 73.3654 136.198 84.5563 135.684 83.0596C135.548 82.6515 135.376 83.1277 135.24 84.3862C134.658 89.2163 131.27 97.0737 127.745 101.802C125.144 105.271 120.217 109.999 116.692 112.38C104.167 120.85 90.308 123.163 76.4829 119.115C72.3764 117.891 65.1901 114.285 61.7681 111.7C52.4259 104.693 46.1635 94.3525 44.5209 83.2297C43.8365 78.7398 43.8365 76.5288 44.4867 72.277C45.4106 66.0523 47.8403 60.6099 51.3308 56.9023L53.076 55.0315L51.2966 53.2967C48.8327 50.8817 47.8061 48.8748 47.327 45.5073C46.3004 38.2282 49.346 27.9897 54.5475 21.1188C64.3004 8.26118 81.0684 1.96844 97.8365 4.8597ZM41.4753 71.5967C41.3726 71.9368 41.3042 71.7327 41.3042 71.1885C41.3042 70.6102 41.3726 70.3721 41.4753 70.5762C41.5437 70.8143 41.5437 71.2905 41.4753 71.5967ZM43.8707 73.8076C43.7681 74.0797 43.6654 73.9777 43.6654 73.6035C43.6312 73.2294 43.7338 73.0253 43.8365 73.1613C43.9392 73.2634 43.9734 73.5695 43.8707 73.8076ZM139.004 76.1887C138.935 76.6308 138.867 76.3587 138.867 75.6104C138.833 74.8621 138.901 74.5219 139.004 74.8281C139.072 75.1682 139.072 75.7805 139.004 76.1887ZM136.471 77.005C136.403 77.2431 136.471 77.5152 136.677 77.6513C136.882 77.7533 137.053 77.6513 137.053 77.4132C137.087 77.1071 137.19 77.1411 137.395 77.5152C137.567 77.8214 137.601 78.5017 137.43 79.0459L137.156 80.0323L136.882 79.0119C136.574 77.9914 136.574 77.9914 136.369 79.5221C136.163 80.7466 136.129 80.4745 136.095 78.1615C136.095 76.4268 136.198 75.5424 136.335 75.9506C136.506 76.3247 136.54 76.8009 136.471 77.005ZM41.1331 77.8894C41.0304 78.1275 40.962 77.9574 40.962 77.4812C40.962 77.005 41.0304 76.8349 41.1331 77.039C41.2015 77.2771 41.2015 77.6853 41.1331 77.8894ZM138.764 78.1955C138.764 78.7057 138.627 79.216 138.422 79.352C138.251 79.4541 138.183 79.7602 138.285 79.9983C138.388 80.2704 138.319 80.5766 138.114 80.7126C137.84 80.8487 137.806 80.5085 137.943 79.6241C138.046 78.9098 138.217 78.2636 138.285 78.1955C138.354 78.1275 138.251 77.8894 138.08 77.6513C137.84 77.3792 137.909 77.2431 138.251 77.2431C138.593 77.2431 138.764 77.5833 138.764 78.1955ZM139.346 78.3996C139.243 78.7398 139.175 78.5357 139.175 77.9914C139.175 77.4132 139.243 77.1751 139.346 77.3792C139.414 77.6173 139.414 78.0935 139.346 78.3996ZM138.593 85.2366C138.251 86.9713 137.943 88.3319 137.84 88.2639C137.772 88.1618 137.943 86.8353 138.217 85.3046C138.525 83.7739 138.798 81.8011 138.833 80.9167L138.867 79.352L139.004 80.7126C139.106 81.4609 138.901 83.5018 138.593 85.2366ZM137.635 89.4544C137.532 89.7265 137.43 89.6245 137.43 89.2503C137.395 88.8762 137.498 88.6721 137.601 88.8081C137.703 88.9102 137.738 89.2163 137.635 89.4544ZM110.156 122.211C110.293 122.619 110.224 122.653 109.711 122.415C109.369 122.211 108.992 122.143 108.89 122.245C108.65 122.517 109.711 125.544 110.156 125.85C110.361 125.986 110.087 126.224 109.574 126.428C108.376 126.905 108.205 126.905 108.479 126.462C108.753 126.02 107.658 122.721 107.247 122.721C107.076 122.721 106.768 123.061 106.597 123.469C106.289 124.252 106.289 124.252 106.289 123.537C106.255 122.313 109.711 121.122 110.156 122.211ZM73.4373 122.483C73.8137 122.755 73.9164 123.095 73.711 123.571C73.5057 124.081 73.4373 124.115 73.4373 123.707C73.403 122.891 72.4449 122.177 72 122.619C71.7605 122.857 71.9316 123.299 72.5475 124.013C74.0532 125.816 72.9582 127.279 70.7681 126.394C69.8783 126.02 69.7757 125.85 70.0152 125.17C70.1863 124.762 70.3916 124.422 70.4943 124.422C70.6312 124.422 70.6312 124.558 70.5285 124.694C70.4259 124.864 70.597 125.34 70.8707 125.748C71.2814 126.326 71.5209 126.394 71.8973 126.088C72.2738 125.782 72.2053 125.544 71.5209 124.626C70.5627 123.367 70.4943 123.027 71.076 122.449C71.5894 121.939 72.7186 121.939 73.4373 122.483ZM79.3232 124.83C79.9392 125.646 79.9734 125.85 79.5627 126.803C79.0152 128.129 77.749 128.673 76.4487 128.163C73.9848 127.143 74.8061 123.571 77.4411 123.809C78.2624 123.877 78.8441 124.183 79.3232 124.83ZM83.1559 124.626C83.5323 124.796 83.6008 124.932 83.3612 125.102C83.1217 125.204 82.8821 126.122 82.7452 127.075C82.5399 128.809 82.5741 128.843 83.4297 128.843C83.9087 128.843 84.4905 128.571 84.6616 128.231C84.9354 127.789 85.0038 127.755 85.038 128.163C85.038 129.218 84.5589 129.456 82.711 129.286C81.0684 129.116 80.9316 129.048 81.1711 128.367C81.3422 127.993 81.4449 126.939 81.4449 126.02C81.4449 124.354 81.7529 124.115 83.1559 124.626ZM101.806 124.898C102.08 125.272 102.114 125.578 101.84 126.02C101.567 126.496 101.703 126.837 102.422 127.551L103.312 128.503H102.49C102.046 128.503 101.224 128.095 100.677 127.551L99.6844 126.633L99.924 127.483C100.061 127.959 100.335 128.435 100.506 128.537C100.814 128.741 99.6844 129.184 98.8973 129.184C98.7262 129.184 98.5551 128.333 98.5209 127.279C98.5209 126.122 98.3156 125.272 98.0418 125.102C97.6996 124.898 97.7681 124.796 98.2471 124.66C99.616 124.32 101.395 124.422 101.806 124.898ZM95.9886 124.898C95.9886 124.966 96.0913 125.306 96.2281 125.612C96.4335 126.156 96.365 126.156 95.5779 125.646C94.654 125.068 94.2776 125.204 94.2776 126.19C94.2776 126.871 94.8251 127.007 95.0646 126.36C95.1673 126.156 95.27 126.496 95.27 127.143C95.3042 127.993 95.2015 128.197 94.962 127.823C94.5855 127.211 94.1065 127.585 94.3802 128.333C94.654 129.014 95.8517 128.98 96.3308 128.231C96.6388 127.721 96.673 127.755 96.6046 128.503C96.5019 129.286 96.365 129.354 94.4487 129.456C93.2167 129.49 92.5665 129.422 92.8403 129.252C93.1483 129.048 93.2167 128.469 93.0798 127.313C92.9772 126.428 92.8061 125.578 92.7376 125.442C92.635 125.272 92.7719 125.068 92.9772 125C93.5247 124.762 95.9886 124.694 95.9886 124.898ZM88.3916 125.34C88.3574 125.51 88.4943 126.156 88.7338 126.803L89.1787 127.993L89.6578 127.143C89.9316 126.667 90.1369 126.02 90.1711 125.68C90.1711 125.374 90.4106 125.102 90.6844 125.102C91.0951 125.102 90.924 125.68 89.9658 127.551C88.9049 129.626 88.6654 129.932 88.4601 129.354C88.3232 128.98 87.8783 127.857 87.4677 126.871L86.749 125.102H87.6046C88.0836 125.102 88.4258 125.204 88.3916 125.34Z" fill="black" fill-opacity="0.5"/>
<path d="M81.4449 13.3981C73.8822 14.1465 67.7567 16.7316 63.4791 21.0174C59.1331 25.3373 57.3537 30.3375 57.7643 37.1744C58.1065 42.7529 59.6807 46.9707 62.829 50.9504C67.3461 56.6309 73.3004 60.7807 86.4753 67.3115C94.1407 71.1212 97.289 73.06 99.7871 75.4751C105.228 80.7474 104.578 89.4211 98.4868 93.4349C96.2624 94.8975 93.7301 95.5778 90.3765 95.5778C85.1407 95.5438 81.0001 93.9451 77.6464 90.6116C74.6008 87.5503 73.3004 84.455 72.8556 79.1146C72.616 76.4955 72.616 76.4615 71.5552 76.2914C70.9734 76.1894 67.2092 76.1213 63.1712 76.1894L55.848 76.2914L55.9164 80.033C56.0191 86.0537 57.4221 92.1083 59.5438 95.6798C60.8784 97.9588 63.8213 100.408 66.6274 101.564C72.1027 103.843 81.308 104.898 92.3955 104.592C104.612 104.218 110.977 102.143 116.35 96.7343C119.122 93.9451 120.901 90.8497 122.065 86.836C123.091 83.1964 123.16 76.1554 122.202 72.5498C119.498 62.4134 111.285 55.4404 91.54 46.5285C81.2396 41.8685 77.8175 38.433 77.578 32.4124C77.4411 29.249 77.9202 27.8204 79.7681 25.7795C84.1483 20.9834 93.6959 20.3371 100.129 24.4529C104.749 27.4122 106.905 32.1743 106.939 39.4534V42.7869H115.768H124.563L124.323 37.9568C123.81 26.2897 120.97 20.2351 114.707 17.1738C112.312 16.0173 107.555 14.7587 102.833 14.0444C99.4107 13.5002 84.7301 13.058 81.4449 13.3981Z" fill="black" fill-opacity="0.5"/>
<path d="M88.4601 24.9618C86.578 25.268 84.8327 25.8802 83.7377 26.6285C82.5742 27.4109 81.2738 29.0436 81.2738 29.6899C81.2738 29.8599 81.4449 29.7919 81.616 29.5198C81.7871 29.2477 82.3689 29.0096 82.8822 28.9756C83.3955 28.9756 84.5248 28.6014 85.3803 28.1592C87.7073 26.9687 92.635 26.7986 95.6122 27.8191C98.3499 28.7375 100.506 30.1661 101.84 31.9689C103.004 33.6016 103.107 33.4655 102.114 31.3906C101.019 29.1116 98.1445 26.6626 95.578 25.8462C93.3879 25.1319 90 24.7237 88.4601 24.9618Z" fill="black" fill-opacity="0.5"/>
<path d="M105.776 46.8682L106.289 47.8887H109.951C112.141 47.8887 113.441 47.7526 113.133 47.5825C112.825 47.3785 113.27 47.0723 114.673 46.5961L116.692 45.9158L110.977 45.8818L105.297 45.8478L105.776 46.8682Z" fill="black" fill-opacity="0.5"/>
<path d="M59.0646 52.1395C61.5969 56.5274 66.3536 61.2215 72.3079 65.1672C74.6349 66.6979 79.9391 69.5891 85.038 72.1062C90.2737 74.6913 94.5513 77.0383 95.7148 77.9567C98.0418 79.7935 99.3764 81.9705 99.7528 84.3855L100.027 86.1543L100.061 84.2495C100.129 80.848 98.6578 78.2289 95.3726 75.7798C94.3118 74.9975 89.3498 72.3103 84.3536 69.8272C70.5969 62.9562 65.3954 59.2826 59.441 52.1395L58.2775 50.7789L59.0646 52.1395Z" fill="black" fill-opacity="0.5"/>
<path d="M109.471 51.799C109.506 52.0711 110.84 53.2276 112.414 54.4182C121.962 61.4932 126.103 69.1465 126.103 79.8272C126.103 86.5281 124.323 92.1065 120.696 96.9026C116.555 102.345 109.506 105.951 100.471 107.243C95.4411 107.991 78.2966 107.787 73.9848 106.937C66.5247 105.474 62.3156 103.603 59.0646 100.338L56.8745 98.1271L57.8669 99.9299C59.4753 102.889 65.7034 108.774 67.6198 109.182C67.8935 109.25 68.3042 109.522 68.5437 109.794C68.8175 110.066 68.9201 110.1 68.7833 109.896C68.6464 109.59 68.749 109.522 69.0912 109.658C69.3992 109.76 69.5361 110.032 69.3992 110.27C69.2281 110.542 69.2966 110.542 69.673 110.27C70.0152 109.998 70.8365 109.964 72.7186 110.236C75.7642 110.645 96.5019 110.747 102.148 110.372C104.304 110.236 106.939 109.998 107.966 109.828C108.992 109.658 110.224 109.556 110.703 109.59C112.791 109.76 120.354 103.093 123.536 98.2632C125.487 95.3039 127.471 90.882 128.361 87.5145C129.217 84.2151 129.217 76.8339 128.361 73.7385C127.574 70.9493 125.863 67.2077 124.152 64.6566C122.27 61.7994 117.821 57.3434 114.297 54.7243C110.087 51.6289 109.369 51.1867 109.471 51.799Z" fill="black" fill-opacity="0.5"/>
<path d="M76.5171 125.068C75.9354 126.462 76.1407 127.619 77.0304 127.755C77.8517 127.857 78.673 126.36 78.4677 125.034C78.2966 123.809 77.0304 123.809 76.5171 125.068Z" fill="black" fill-opacity="0.5"/>
<path d="M99.5475 125.272C99.6502 125.579 99.7529 125.987 99.7529 126.157C99.7529 126.327 99.9924 126.463 100.3 126.463C101.087 126.463 100.779 124.966 99.9582 124.83C99.4791 124.728 99.3764 124.83 99.5475 125.272Z" fill="black" fill-opacity="0.5"/>
<path d="M0.513306 61.6305C0.513306 61.6986 1.81369 62.685 3.42205 63.8755C6.05703 65.8144 6.3308 66.1205 6.3308 67.1409C6.3308 67.7532 6.5019 68.3655 6.673 68.4675C7.35741 68.8757 7.01521 70.3723 6.09125 71.1887L5.13308 72.005L20.4639 72.0391C32.4411 72.0391 35.7947 71.937 35.8973 71.5969C35.9658 71.3928 36.308 70.0322 36.616 68.6376C36.9582 67.243 37.6084 65.066 38.019 63.7735L38.8061 61.4945H19.6426C9.13688 61.4945 0.513306 61.5625 0.513306 61.6305Z" fill="black" fill-opacity="0.5"/>
<path d="M128.601 116.836C128.909 116.904 129.388 116.904 129.627 116.836C129.833 116.734 129.593 116.666 129.011 116.666C128.464 116.666 128.259 116.734 128.601 116.836Z" fill="black" fill-opacity="0.5"/>
</svg>
