<svg width="80" height="80" viewBox="0 0 80 80" fill="none" xmlns="http://www.w3.org/2000/svg">
<g clip-path="url(#clip0_191_47)">
<path d="M40 0C62 0 80 18 80 40C80 62 62 80 40 80C18 80 0 62 0 40C0 18 18 0 40 0Z" fill="url(#paint0_linear_191_47)"/>
<path d="M51.75 15H28C20.75 15 15 21 15 28.5V51.5C15 58.75 20.75 64.75 28.25 65H52C59.25 65 65.25 59 65.25 51.5V28.5C65 21 59.25 15 51.75 15ZM60.5 51.25C60.5 56.25 56.5 60.5 51.25 60.5H28.5C23.5 60.5 19.25 56.25 19.5 51.25V28.75C19.5 23.75 23.5 19.5 28.5 19.5H51.25C56.25 19.5 60.5 23.75 60.5 28.75V51.25Z" fill="white"/>
<path d="M40 27.25C33 27 27 32.75 27 39.75C26.75 46.75 32.5 52.75 39.5 52.75C46.5 52.75 52.5 47.25 52.5 40.25V40C52.75 33 47 27.25 40 27.25ZM40 48.25C35.5 48.25 31.75 44.75 31.5 40.25C31.5 35.75 35 32 39.5 31.75C44 31.5 47.75 35.25 48 39.75V40C48.25 44.5 44.5 48.25 40 48.25Z" fill="white"/>
<path d="M53.25 23.5C54.75 23.5 56 24.75 56 26.5C56 28.25 54.75 29.5 53.25 29.5C51.75 29.5 50.5 28.25 50.5 26.5C50.5 24.75 51.75 23.5 53.25 23.5Z" fill="white"/>
</g>
<defs>
<linearGradient id="paint0_linear_191_47" x1="19.9932" y1="74.6491" x2="60" y2="5.3555" gradientUnits="userSpaceOnUse">
<stop stop-color="#FEC053"/>
<stop offset="0.327" stop-color="#F2203E"/>
<stop offset="0.482292" stop-color="#D52471"/>
<stop offset="0.482392" stop-color="#D52471"/>
<stop offset="0.591667" stop-color="#C12795"/>
<stop offset="0.6125" stop-color="#BE289C"/>
<stop offset="0.648" stop-color="#B729A8"/>
<stop offset="1" stop-color="#5342D6"/>
</linearGradient>
<clipPath id="clip0_191_47">
<rect width="80" height="80" fill="white"/>
</clipPath>
</defs>
</svg>
