<svg width="35" height="35" viewBox="0 0 35 35" fill="none" xmlns="http://www.w3.org/2000/svg">
<path d="M30.6619 19.3057C30.2755 19.3057 29.8715 19.1824 29.4851 19.0944C28.7027 18.9214 27.9337 18.6918 27.1844 18.4074C26.3696 18.1101 25.474 18.1256 24.6699 18.4508C23.8658 18.7759 23.21 19.3879 22.8287 20.1688L22.4424 20.9615C20.7317 20.0071 19.1598 18.8217 17.7706 17.4386C16.3915 16.0454 15.2096 14.4689 14.258 12.7532L14.9956 12.26C15.7743 11.8777 16.3845 11.22 16.7087 10.4135C17.033 9.60709 17.0483 8.70887 16.7519 7.89172C16.4731 7.13858 16.2442 6.36774 16.067 5.58426C15.9792 5.19675 15.9089 4.79162 15.8562 4.3865C15.6429 3.14579 14.995 2.02222 14.029 1.21812C13.063 0.414029 11.8425 -0.0177443 10.5873 0.000558904H5.31839C4.56147 -0.00656876 3.81191 0.149951 3.12074 0.459463C2.42956 0.768974 1.81299 1.22421 1.31301 1.79418C0.813025 2.36415 0.441363 3.03548 0.223323 3.76245C0.00528418 4.48942 -0.0540125 5.25498 0.0494702 6.007C0.985121 13.3863 4.34544 20.2426 9.59965 25.493C14.8538 30.7433 21.7024 34.0885 29.0636 35H29.731C31.0262 35.0019 32.2766 34.5253 33.2436 33.6613C33.7993 33.1629 34.2431 32.5519 34.5459 31.8687C34.8486 31.1856 35.0034 30.4457 34.9999 29.6981V24.4139C34.9784 23.1903 34.5342 22.0122 33.743 21.0807C32.9519 20.1491 31.8629 19.5217 30.6619 19.3057ZM31.54 29.8743C31.5397 30.1244 31.4863 30.3715 31.3833 30.5993C31.2804 30.8271 31.1302 31.0303 30.9429 31.1953C30.7472 31.3662 30.5178 31.4937 30.2696 31.5696C30.0215 31.6455 29.7601 31.668 29.5027 31.6357C22.9252 30.7899 16.8156 27.772 12.1376 23.0581C7.45967 18.3442 4.47959 12.2025 3.66746 5.60188C3.63951 5.34386 3.664 5.08284 3.73947 4.83459C3.81494 4.58633 3.93981 4.356 4.10654 4.15751C4.27112 3.96962 4.47371 3.81904 4.70083 3.71578C4.92795 3.61252 5.1744 3.55895 5.42376 3.55863H10.6927C11.1011 3.54951 11.4999 3.68348 11.8205 3.93746C12.141 4.19144 12.3633 4.54955 12.449 4.95015C12.5192 5.43161 12.6071 5.90719 12.7124 6.3769C12.9153 7.30543 13.1853 8.2179 13.5203 9.10711L11.0615 10.252C10.8513 10.3488 10.6622 10.4862 10.505 10.6564C10.3479 10.8267 10.2259 11.0264 10.1459 11.2441C10.0659 11.4617 10.0296 11.6931 10.0391 11.9249C10.0485 12.1567 10.1035 12.3843 10.2009 12.5947C12.7286 18.0247 17.0808 22.3896 22.495 24.9247C22.9226 25.1008 23.4022 25.1008 23.8298 24.9247C24.0489 24.8461 24.2502 24.7247 24.422 24.5674C24.5939 24.4102 24.7329 24.2203 24.8309 24.0087L25.9198 21.5427C26.8278 21.8684 27.7545 22.139 28.6948 22.353C29.1632 22.4587 29.6374 22.5467 30.1174 22.6172C30.5168 22.7031 30.8739 22.926 31.1272 23.2475C31.3804 23.569 31.514 23.969 31.5049 24.3786L31.54 29.8743Z" fill="#EBEBEB"/>
</svg>
