<svg width="80" height="80" viewBox="0 0 80 80" fill="none" xmlns="http://www.w3.org/2000/svg">
<g clip-path="url(#clip0_191_41)">
<path d="M40 0C17.9086 0 0 17.9086 0 40C0 62.0914 17.9086 80 40 80C62.0914 80 80 62.0914 80 40C80 17.9086 62.0914 0 40 0ZM60.7905 25.3025L53.6861 59.2188C53.6001 59.629 53.4125 60.011 53.1403 60.3298C52.8682 60.6485 52.5203 60.8938 52.1287 61.043C51.737 61.1923 51.3141 61.2407 50.8989 61.1838C50.4836 61.127 50.0893 60.9667 49.7522 60.7177L39.4184 53.0831L33.1578 58.9894C33.0759 59.0667 32.9793 59.1269 32.8739 59.1665C32.7684 59.2061 32.6561 59.2243 32.5435 59.22C32.4309 59.2157 32.3203 59.1891 32.2181 59.1416C32.116 59.0941 32.0243 59.0267 31.9484 58.9434L31.8139 58.7956L32.9017 48.2683L52.5086 30.3541C52.6056 30.2656 52.6659 30.144 52.6776 30.0133C52.6893 29.8826 52.6516 29.7522 52.572 29.6479C52.4923 29.5436 52.3765 29.473 52.2473 29.4499C52.1181 29.4268 51.9849 29.453 51.8741 29.5233L26.7992 45.3936L16 41.7667C15.7129 41.6703 15.4626 41.4873 15.2835 41.243C15.1045 40.9986 15.0054 40.7049 15 40.402C14.9945 40.0991 15.0829 39.802 15.253 39.5513C15.423 39.3007 15.6665 39.1088 15.95 39.002L58.2031 23.085C58.5291 22.9623 58.882 22.9295 59.2249 22.9899C59.5679 23.0503 59.8884 23.2017 60.1528 23.4284C60.4172 23.655 60.6159 23.9485 60.7281 24.2782C60.8402 24.6079 60.8618 24.9616 60.7905 25.3025Z" fill="url(#paint0_linear_191_41)"/>
</g>
<defs>
<linearGradient id="paint0_linear_191_41" x1="2.92608e-07" y1="80" x2="78.5464" y2="1.45359" gradientUnits="userSpaceOnUse">
<stop stop-color="#2081C7"/>
<stop offset="1" stop-color="#38AFE2"/>
</linearGradient>
<clipPath id="clip0_191_41">
<rect width="80" height="80" fill="white"/>
</clipPath>
</defs>
</svg>
