<svg width="40" height="40" viewBox="0 0 40 40" fill="none" xmlns="http://www.w3.org/2000/svg">
<g clip-path="url(#clip0_9_44)">
<path d="M7.5 7.17968C7.46094 7.26562 7.42188 7.60156 7.42188 7.92187V8.51562H5.54688C3.1875 8.51562 3.35938 8.40625 3.35938 9.90625C3.35938 11.4531 3.17188 11.3281 5.51563 11.3281H7.42188V13.7812V16.2344L6.03906 16.2656C4.67969 16.2891 4.64063 16.2969 4.27344 16.5078C3.85156 16.7578 3.5625 17.1484 3.4375 17.6562C3.35156 17.9922 3.27344 18.0625 1.89844 19.1406C0.828125 19.9766 0.398438 20.3594 0.25 20.625L0.0390625 20.9766L0.015625 24.5156L-0.0078125 28.0625L0.179688 28.4687C0.390625 28.9219 0.578125 29.0937 2.34375 30.4687C3.07813 31.0469 3.375 31.3203 3.40625 31.4687C3.54688 32.1406 4.00781 32.6953 4.57813 32.8984C5.03125 33.0625 24.4219 33.0625 24.875 32.8984C25.2813 32.7578 25.7969 32.2266 25.9297 31.8125L26.0391 31.4844H29.5234H33.0078L34.375 30.3437C36.7344 28.375 36.8047 28.2812 36.8594 26.9297L36.8906 26.0937H38.3203C39.6016 26.0937 39.7578 26.0781 39.8672 25.9531C40.0547 25.7422 40.0625 23.5156 39.875 23.3281C39.7734 23.2266 39.5234 23.2031 38.3203 23.2031H36.8906L36.8594 22.3594C36.8359 21.6016 36.8125 21.4609 36.6016 21.0469C36.3906 20.6406 36.1797 20.4297 34.8047 19.2734C33.9453 18.5547 33.1328 17.9141 32.9922 17.8516C32.7891 17.7578 32.2734 17.7344 30.3516 17.7344H27.9688V14.4141C27.9688 10.4844 28.0469 10.7812 27.0391 10.7812H26.4219L26.3906 9.70312C26.3672 8.6875 26.3516 8.60937 26.1328 8.21093C26.0078 7.98437 25.7656 7.67968 25.6016 7.53125C24.9766 7.00781 25.4844 7.03125 16.0859 7.03125C7.75781 7.03125 7.57813 7.03125 7.5 7.17968ZM9.60938 12.0312V16.25H8.94531H8.28125V12.0312V7.8125H8.94531H9.60938V12.0312ZM13.125 10.3672C13.125 12.8828 13.1328 12.9375 13.3047 13.2422C13.4063 13.4141 13.6172 13.625 13.7891 13.7266C14.1016 13.8984 14.125 13.9062 17.2813 13.9062C19.3359 13.9062 20.5391 13.875 20.6797 13.8203C21.0078 13.7031 21.3984 13.2891 21.4844 12.9687C21.5313 12.8203 21.5625 11.6094 21.5625 10.25V7.79687L23.0781 7.82812L24.5938 7.85156L24.9297 8.08593C25.4453 8.45312 25.5625 8.75781 25.6094 9.85156L25.6484 10.7812H25.0313C23.9844 10.7812 24.0625 10.5625 24.0625 13.6406V16.25H17.2266H10.3906V12.0312V7.8125H11.7578H13.125V10.3672ZM20.7031 10.2969C20.7031 12.7266 20.7031 12.7891 20.5391 12.9375C20.3828 13.0781 20.1953 13.0859 17.4375 13.1094C14.3125 13.1328 14.1563 13.1172 13.9922 12.7656C13.8984 12.5547 13.8672 7.96093 13.9609 7.86718C13.9844 7.83593 15.5156 7.8125 17.3594 7.8125H20.7031V10.2969ZM7.42188 9.96093V10.5469H5.82031H4.21875V9.96093V9.375H5.82031H7.42188V9.96093ZM27.1094 14.6875V17.7344H26.5703H26.0313L25.9375 17.4609C25.8203 17.1094 25.5234 16.7578 25.1406 16.5156L24.8438 16.3281V13.9844V11.6406H25.9766H27.1094V14.6875ZM5.70313 24.6484V32.1875H5.39063C4.94531 32.1875 4.5625 32.0078 4.375 31.7031C4.21875 31.4531 4.21875 31.3281 4.21875 24.625C4.21875 17.1641 4.20313 17.4844 4.67188 17.2344C4.78906 17.1641 5.07031 17.1172 5.29688 17.1094H5.70313V24.6484ZM22.8906 24.6484V32.1875H21.0547H19.2188V26.875C19.2188 22.5859 19.1953 21.5078 19.1094 21.3047C18.9766 20.9687 18.5156 20.5781 18.1484 20.4766C17.7266 20.3594 11.7422 20.3594 11.2734 20.4766C10.8203 20.5937 10.3594 21.0234 10.2422 21.4453C10.1875 21.6562 10.1563 23.4062 10.1563 26.9687V32.1875H8.35938H6.5625V24.6484V17.1094H14.7266H22.8906V24.6484ZM24.8359 17.3125C24.9688 17.4219 25.1094 17.6406 25.1563 17.7969C25.2188 17.9922 25.2344 20.1953 25.2188 24.8047C25.1953 31.1328 25.1875 31.5391 25.0547 31.7344C24.8672 32 24.4688 32.1875 24.0703 32.1875H23.75V24.6484V17.1094H24.1719C24.5156 17.1094 24.6406 17.1484 24.8359 17.3125ZM32.4063 24.625L32.3828 30.6641H29.2188H26.0547L26.0313 24.625L26.0156 18.5937H29.2188H32.4219L32.4063 24.625ZM3.34375 27.3906L3.32031 30.1641L2.20313 29.2969C1.59375 28.8203 1.03906 28.3281 0.976563 28.2031C0.875 28.0078 0.859375 27.4531 0.859375 24.5937C0.867188 22 0.890625 21.1719 0.960938 21.0312C1.01563 20.9297 1.57031 20.4531 2.19531 19.9766L3.32031 19.0937L3.34375 21.8516C3.35156 23.3672 3.35156 25.8594 3.34375 27.3906ZM34.5313 20.1406C35.3672 20.8359 35.7891 21.2344 35.8984 21.4531C36.0391 21.7344 36.0547 21.9531 36.0781 24.3047C36.1094 27.0156 36.0625 27.5859 35.7734 28C35.625 28.2187 33.4531 30.0781 33.2734 30.1406C33.2344 30.1562 33.2031 27.8906 33.2031 24.6562C33.2031 21.625 33.2344 19.1406 33.2656 19.1406C33.2969 19.1406 33.8672 19.5937 34.5313 20.1406ZM18.2109 21.4766L18.4375 21.7031V26.9453V32.1875H17.9297H17.4219V27.3125C17.4219 22.875 17.4141 22.4297 17.2891 22.3359C17.1875 22.25 16.6719 22.2266 14.7109 22.2266H12.25L12.1016 22.4141C11.9609 22.5859 11.9531 22.7891 11.9531 27.3906V32.1875H11.4844H11.0156V26.9141V21.6328L11.2109 21.4453L11.3984 21.25H14.6875H17.9844L18.2109 21.4766ZM16.5625 27.6172V32.1875H14.6875H12.8125V27.6172V23.0469H14.6875H16.5625V27.6172ZM39.1406 24.6094V25.2344H38.0078H36.875V24.6094V23.9844H38.0078H39.1406V24.6094Z" fill="#B9110C"/>
<path d="M15.4453 9.04687C15.2188 9.09375 15.1562 9.39844 15.1562 10.4922C15.1562 11.3047 15.1797 11.5625 15.2813 11.7031C15.4375 11.9219 15.8203 11.9375 15.9375 11.7266C16.0547 11.5 16.0391 9.25781 15.9219 9.16406C15.7734 9.05469 15.6016 9.00781 15.4453 9.04687Z" fill="#B9110C"/>
<path d="M17.0781 9.08594C16.7735 9.3125 16.8203 10.3828 17.1485 10.5938C17.3281 10.7109 17.3594 10.7109 17.5391 10.5938C17.7188 10.4766 17.7344 10.4219 17.7344 9.84375C17.7344 9.29688 17.7188 9.21094 17.5625 9.10938C17.3516 8.96094 17.2578 8.95313 17.0781 9.08594Z" fill="#B9110C"/>
<path d="M27.2656 19.7656C27.0703 19.9609 27.0625 20.1719 27.25 20.3359C27.375 20.4531 27.6328 20.4688 29.2422 20.4688C31.2344 20.4688 31.3281 20.4531 31.3281 20.0391C31.3281 19.6484 31.1328 19.6094 29.2031 19.6094C27.5234 19.6094 27.4141 19.6172 27.2656 19.7656Z" fill="#B9110C"/>
<path d="M27.1719 22.1484C27.1094 22.2969 27.1094 22.3906 27.1719 22.5391L27.2656 22.7344H29.2188H31.1719L31.2656 22.5391C31.3281 22.3906 31.3281 22.2969 31.2656 22.1484L31.1719 21.9531H29.2188H27.2656L27.1719 22.1484Z" fill="#B9110C"/>
<path d="M27.2422 24.3594C27.0625 24.5625 27.0781 24.8125 27.2812 24.9531C27.4297 25.0547 27.75 25.0781 29.2187 25.0781C31.1328 25.0781 31.3281 25.0391 31.3281 24.6484C31.3281 24.2344 31.2344 24.2188 29.2266 24.2188C27.5234 24.2188 27.3594 24.2344 27.2422 24.3594Z" fill="#B9110C"/>
<path d="M27.2812 26.6094C27.0703 26.75 27.0547 27.0391 27.25 27.2109C27.375 27.3281 27.6328 27.3438 29.2344 27.3438C30.914 27.3438 31.0781 27.3281 31.1953 27.2031C31.375 27 31.3594 26.75 31.1562 26.6094C31.0078 26.5078 30.6875 26.4844 29.2187 26.4844C27.75 26.4844 27.4297 26.5078 27.2812 26.6094Z" fill="#B9110C"/>
<path d="M27.1875 28.9766C27.0781 29.1875 27.0859 29.3438 27.2344 29.4844C27.3359 29.5938 27.625 29.6094 29.2187 29.6094C30.8125 29.6094 31.1016 29.5938 31.2031 29.4844C31.3516 29.3438 31.3594 29.1875 31.25 28.9766C31.1719 28.8359 31.0625 28.8281 29.2187 28.8281C27.375 28.8281 27.2656 28.8359 27.1875 28.9766Z" fill="#B9110C"/>
<path d="M34.5312 22.4844C34.2422 22.5703 34.2188 22.7187 34.2188 24.6562C34.2188 26.2734 34.2344 26.5703 34.3438 26.6719C34.5078 26.8359 34.7891 26.8281 34.9453 26.6562C35.0625 26.5312 35.0781 26.2734 35.0781 24.6406C35.0781 22.7187 35.0547 22.5781 34.7656 22.4844C34.7031 22.4609 34.5938 22.4609 34.5312 22.4844Z" fill="#B9110C"/>
</g>
<defs>
<clipPath id="clip0_9_44">
<rect width="40" height="40" fill="white"/>
</clipPath>
</defs>
</svg>
