<?xml version="1.0" standalone="no"?>
<!DOCTYPE svg PUBLIC "-//W3C//DTD SVG 20010904//EN"
 "http://www.w3.org/TR/2001/REC-SVG-20010904/DTD/svg10.dtd">
<svg version="1.0" xmlns="http://www.w3.org/2000/svg"
 width="512.000000pt" height="512.000000pt" viewBox="0 0 512.000000 512.000000"
 preserveAspectRatio="xMidYMid meet">

<g transform="translate(0.000000,512.000000) scale(0.100000,-0.100000)"
fill="#B9110C" stroke="none">
<path d="M2380 4954 c-537 -51 -997 -242 -1386 -578 -441 -380 -716 -881 -811
-1478 -24 -157 -24 -517 1 -676 74 -472 259 -879 561 -1230 382 -445 916 -731
1515 -814 123 -17 478 -16 600 1 698 96 1291 459 1679 1026 311 455 460 1016
412 1555 -103 1167 -1012 2082 -2176 2190 -102 9 -313 11 -395 4z m243 -1128
c18 -8 185 -168 379 -362 375 -377 370 -371 353 -461 -9 -49 -69 -109 -118
-118 -85 -16 -96 -9 -314 208 l-203 201 -2 -956 c-3 -948 -3 -957 -24 -984
-39 -53 -71 -69 -134 -69 -63 0 -95 16 -134 69 -21 27 -21 36 -24 984 l-2 956
-203 -201 c-218 -217 -229 -224 -314 -208 -49 9 -109 69 -118 118 -17 90 -22
84 353 461 191 191 361 354 377 362 39 17 88 17 128 0z"/>
</g>
</svg>
