<svg width="40" height="40" viewBox="0 0 40 40" fill="none" xmlns="http://www.w3.org/2000/svg">
<g clip-path="url(#clip0_11_215)">
<path opacity="0.985" fill-rule="evenodd" clip-rule="evenodd" d="M39.9609 16.6797C39.9609 18.8672 39.9609 21.0547 39.9609 23.2422C39.8729 23.2908 39.7948 23.3559 39.7266 23.4375C37.7997 23.4766 35.8726 23.4896 33.9453 23.4766C33.9583 24.2843 33.9453 25.0916 33.9062 25.8984C33.5807 27.0573 32.8385 27.7995 31.6797 28.125C24.2057 28.1771 16.7318 28.1771 9.25781 28.125C7.57278 27.582 6.81757 26.4232 6.99219 24.6484C6.5723 24.6228 6.15563 24.6488 5.74219 24.7266C5.09975 25.8563 4.18829 26.1297 3.00781 25.5469C2.35317 25.0063 2.1188 24.3163 2.30469 23.4766C1.60108 23.4895 0.897953 23.4766 0.195312 23.4375C0.127075 23.3559 0.0489501 23.2908 -0.0390625 23.2422C-0.0390625 21.0547 -0.0390625 18.8672 -0.0390625 16.6797C0.0489501 16.6311 0.127075 16.566 0.195312 16.4844C0.897953 16.4453 1.60108 16.4323 2.30469 16.4453C2.15883 14.7813 2.91404 14.0131 4.57031 14.1406C5.12066 14.3133 5.51129 14.6648 5.74219 15.1953C6.15563 15.2731 6.5723 15.2991 6.99219 15.2734C6.81757 13.4987 7.57278 12.3398 9.25781 11.7969C16.7318 11.7448 24.2057 11.7448 31.6797 11.7969C32.8385 12.1224 33.5807 12.8646 33.9062 14.0234C33.9453 14.8303 33.9583 15.6376 33.9453 16.4453C35.8726 16.4323 37.7997 16.4453 39.7266 16.4844C39.7948 16.566 39.8729 16.6311 39.9609 16.6797ZM9.88281 12.9297C16.9402 12.9166 23.9974 12.9297 31.0547 12.9688C32.0675 13.1222 32.6274 13.7081 32.7344 14.7266C32.7865 18.2162 32.7865 21.7057 32.7344 25.1953C32.6274 26.2138 32.0675 26.7997 31.0547 26.9531C23.9974 27.0052 16.9401 27.0052 9.88281 26.9531C8.87 26.7997 8.31008 26.2138 8.20312 25.1953C8.15102 21.7057 8.15102 18.2162 8.20312 14.7266C8.3243 13.7072 8.88422 13.1082 9.88281 12.9297ZM3.78906 15.3516C4.39875 15.297 4.69823 15.5834 4.6875 16.2109C4.7526 16.276 4.81771 16.3412 4.88281 16.4063C5.58545 16.4453 6.28858 16.4583 6.99219 16.4453C6.99219 18.7891 6.99219 21.1328 6.99219 23.4766C6.60156 23.4766 6.21094 23.4766 5.82031 23.4766C5.83333 21.6014 5.82031 19.7264 5.78125 17.8516C5.41666 17.5391 5.05209 17.5391 4.6875 17.8516C4.66146 19.9088 4.63541 21.9662 4.60938 24.0234C4.53778 24.5109 4.26434 24.6802 3.78906 24.5313C3.72396 24.4662 3.65885 24.401 3.59375 24.3359C3.46558 21.5271 3.43954 18.7146 3.51562 15.8984C3.526 15.6716 3.61715 15.4892 3.78906 15.3516ZM10.8203 15.3516C11.6264 15.3377 11.8087 15.6632 11.3672 16.3281C10.5548 16.3649 10.3725 16.0395 10.8203 15.3516ZM15.5078 15.3516C16.3139 15.3377 16.4962 15.6632 16.0547 16.3281C15.2423 16.3649 15.06 16.0395 15.5078 15.3516ZM20.1953 15.3516C21.0014 15.3377 21.1837 15.6632 20.7422 16.3281C19.9298 16.3649 19.7475 16.0395 20.1953 15.3516ZM24.8828 15.3516C25.6889 15.3377 25.8712 15.6632 25.4297 16.3281C24.6173 16.3649 24.435 16.0395 24.8828 15.3516ZM29.5703 15.3516C30.3764 15.3377 30.5587 15.6632 30.1172 16.3281C29.3048 16.3649 29.1225 16.0395 29.5703 15.3516ZM1.13281 17.6172C1.52344 17.6172 1.91406 17.6172 2.30469 17.6172C2.30469 19.1797 2.30469 20.7422 2.30469 22.3047C1.91406 22.3047 1.52344 22.3047 1.13281 22.3047C1.13281 20.7422 1.13281 19.1797 1.13281 17.6172ZM33.9453 17.6172C35.5599 17.6172 37.1745 17.6172 38.7891 17.6172C38.7891 19.1797 38.7891 20.7422 38.7891 22.3047C37.1745 22.3047 35.5599 22.3047 33.9453 22.3047C33.9453 20.7422 33.9453 19.1797 33.9453 17.6172ZM13.2422 19.4141C13.8102 19.3778 14.0316 19.6382 13.9062 20.1953C13.764 20.4681 13.5427 20.5591 13.2422 20.4688C12.9591 20.2999 12.8679 20.0525 12.9688 19.7266C13.0227 19.582 13.1138 19.4778 13.2422 19.4141ZM17.9297 19.4141C18.4977 19.3778 18.7191 19.6382 18.5938 20.1953C18.4515 20.4681 18.2302 20.5591 17.9297 20.4688C17.6466 20.2999 17.5554 20.0525 17.6562 19.7266C17.7102 19.582 17.8013 19.4778 17.9297 19.4141ZM22.6172 19.4141C23.1852 19.3778 23.4066 19.6382 23.2812 20.1953C23.139 20.4681 22.9177 20.5591 22.6172 20.4688C22.3341 20.2999 22.2429 20.0525 22.3438 19.7266C22.3977 19.582 22.4888 19.4778 22.6172 19.4141ZM27.3047 19.4141C27.8727 19.3778 28.0941 19.6382 27.9688 20.1953C27.8265 20.4681 27.6052 20.5591 27.3047 20.4688C27.0216 20.2999 26.9304 20.0525 27.0312 19.7266C27.0852 19.582 27.1763 19.4778 27.3047 19.4141ZM10.8203 23.5547C11.6264 23.5408 11.8087 23.8663 11.3672 24.5313C10.5548 24.568 10.3725 24.2426 10.8203 23.5547ZM15.5078 23.5547C16.3139 23.5408 16.4962 23.8663 16.0547 24.5313C15.2423 24.568 15.06 24.2426 15.5078 23.5547ZM20.1953 23.5547C21.0014 23.5408 21.1837 23.8663 20.7422 24.5313C19.9298 24.568 19.7475 24.2426 20.1953 23.5547ZM24.8828 23.5547C25.6889 23.5408 25.8712 23.8663 25.4297 24.5313C24.6173 24.568 24.435 24.2426 24.8828 23.5547ZM29.5703 23.5547C30.3764 23.5408 30.5587 23.8663 30.1172 24.5313C29.3048 24.568 29.1225 24.2426 29.5703 23.5547Z" fill="#B9110C"/>
<path opacity="0.933" fill-rule="evenodd" clip-rule="evenodd" d="M10.5859 14.1016C12.212 13.9958 12.9541 14.751 12.8125 16.3672C12.4183 17.3914 11.6761 17.7951 10.5859 17.5781C9.5368 17.1598 9.13313 16.3916 9.37501 15.2734C9.61766 14.7051 10.0213 14.3144 10.5859 14.1016ZM10.8203 15.3516C10.3725 16.0394 10.5549 16.3649 11.3672 16.3281C11.8087 15.6632 11.6264 15.3377 10.8203 15.3516Z" fill="#B9110C"/>
<path opacity="0.933" fill-rule="evenodd" clip-rule="evenodd" d="M15.2734 14.1016C16.8995 13.9958 17.6416 14.751 17.5 16.3672C17.1058 17.3914 16.3636 17.7951 15.2734 17.5781C14.2243 17.1598 13.8206 16.3916 14.0625 15.2734C14.3052 14.7051 14.7088 14.3144 15.2734 14.1016ZM15.5078 15.3516C15.06 16.0394 15.2424 16.3649 16.0547 16.3281C16.4962 15.6632 16.3139 15.3377 15.5078 15.3516Z" fill="#B9110C"/>
<path opacity="0.933" fill-rule="evenodd" clip-rule="evenodd" d="M19.9609 14.1016C21.587 13.9958 22.3291 14.751 22.1875 16.3672C21.7933 17.3914 21.0511 17.7951 19.9609 17.5781C18.9118 17.1598 18.5081 16.3916 18.75 15.2734C18.9927 14.7051 19.3963 14.3144 19.9609 14.1016ZM20.1953 15.3516C19.7475 16.0394 19.9299 16.3649 20.7422 16.3281C21.1837 15.6632 21.0014 15.3377 20.1953 15.3516Z" fill="#B9110C"/>
<path opacity="0.933" fill-rule="evenodd" clip-rule="evenodd" d="M24.6484 14.1016C26.2745 13.9958 27.0166 14.751 26.875 16.3672C26.4808 17.3914 25.7386 17.7951 24.6484 17.5781C23.5993 17.1598 23.1956 16.3916 23.4375 15.2734C23.6802 14.7051 24.0838 14.3144 24.6484 14.1016ZM24.8828 15.3516C24.435 16.0394 24.6174 16.3649 25.4297 16.3281C25.8712 15.6632 25.6889 15.3377 24.8828 15.3516Z" fill="#B9110C"/>
<path opacity="0.933" fill-rule="evenodd" clip-rule="evenodd" d="M29.3359 14.1016C30.962 13.9958 31.7041 14.751 31.5625 16.3672C31.1683 17.3914 30.4261 17.7951 29.3359 17.5781C28.2868 17.1598 27.8831 16.3916 28.125 15.2734C28.3677 14.7051 28.7713 14.3144 29.3359 14.1016ZM29.5703 15.3516C29.1225 16.0394 29.3049 16.3649 30.1172 16.3281C30.5587 15.6632 30.3764 15.3377 29.5703 15.3516Z" fill="#B9110C"/>
<path opacity="0.924" fill-rule="evenodd" clip-rule="evenodd" d="M13.0078 18.1641C14.6366 18.1131 15.3528 18.8944 15.1562 20.5078C14.763 21.4665 14.0469 21.8702 13.0078 21.7188C11.7358 21.2125 11.3582 20.3141 11.875 19.0234C12.1763 18.6303 12.5539 18.3438 13.0078 18.1641ZM13.2422 19.4141C13.1137 19.4778 13.0227 19.582 12.9687 19.7266C12.8679 20.0525 12.9591 20.2999 13.2422 20.4688C13.5427 20.5591 13.764 20.4681 13.9062 20.1953C14.0316 19.6382 13.8102 19.3778 13.2422 19.4141Z" fill="#B9110C"/>
<path opacity="0.924" fill-rule="evenodd" clip-rule="evenodd" d="M17.6953 18.1641C19.3241 18.1131 20.0403 18.8944 19.8437 20.5078C19.4505 21.4665 18.7344 21.8702 17.6953 21.7188C16.4233 21.2125 16.0457 20.3141 16.5625 19.0234C16.8638 18.6303 17.2414 18.3438 17.6953 18.1641ZM17.9297 19.4141C17.8012 19.4778 17.7102 19.582 17.6562 19.7266C17.5554 20.0525 17.6466 20.2999 17.9297 20.4688C18.2302 20.5591 18.4515 20.4681 18.5937 20.1953C18.7191 19.6382 18.4977 19.3778 17.9297 19.4141Z" fill="#B9110C"/>
<path opacity="0.924" fill-rule="evenodd" clip-rule="evenodd" d="M22.3828 18.1641C24.0116 18.1131 24.7278 18.8944 24.5312 20.5078C24.138 21.4665 23.4219 21.8702 22.3828 21.7188C21.1108 21.2125 20.7332 20.3141 21.25 19.0234C21.5513 18.6303 21.9289 18.3438 22.3828 18.1641ZM22.6172 19.4141C22.4887 19.4778 22.3977 19.582 22.3437 19.7266C22.2429 20.0525 22.3341 20.2999 22.6172 20.4688C22.9177 20.5591 23.139 20.4681 23.2812 20.1953C23.4066 19.6382 23.1852 19.3778 22.6172 19.4141Z" fill="#B9110C"/>
<path opacity="0.924" fill-rule="evenodd" clip-rule="evenodd" d="M27.0703 18.1641C28.6991 18.1131 29.4153 18.8944 29.2187 20.5078C28.8255 21.4665 28.1094 21.8702 27.0703 21.7188C25.7983 21.2125 25.4207 20.3141 25.9375 19.0234C26.2388 18.6303 26.6164 18.3438 27.0703 18.1641ZM27.3047 19.4141C27.1762 19.4778 27.0852 19.582 27.0312 19.7266C26.9304 20.0525 27.0216 20.2999 27.3047 20.4688C27.6052 20.5591 27.8265 20.4681 27.9687 20.1953C28.0941 19.6382 27.8727 19.3778 27.3047 19.4141Z" fill="#B9110C"/>
<path opacity="0.933" fill-rule="evenodd" clip-rule="evenodd" d="M10.5859 22.3047C12.212 22.1989 12.9541 22.9541 12.8125 24.5703C12.4183 25.5945 11.6761 25.9982 10.5859 25.7812C9.5368 25.363 9.13313 24.5948 9.37501 23.4766C9.61766 22.9082 10.0213 22.5176 10.5859 22.3047ZM10.8203 23.5547C10.3725 24.2426 10.5549 24.568 11.3672 24.5312C11.8087 23.8663 11.6264 23.5408 10.8203 23.5547Z" fill="#B9110C"/>
<path opacity="0.933" fill-rule="evenodd" clip-rule="evenodd" d="M15.2734 22.3047C16.8995 22.1989 17.6416 22.9541 17.5 24.5703C17.1058 25.5945 16.3636 25.9982 15.2734 25.7812C14.2243 25.363 13.8206 24.5948 14.0625 23.4766C14.3052 22.9082 14.7088 22.5176 15.2734 22.3047ZM15.5078 23.5547C15.06 24.2426 15.2424 24.568 16.0547 24.5312C16.4962 23.8663 16.3139 23.5408 15.5078 23.5547Z" fill="#B9110C"/>
<path opacity="0.933" fill-rule="evenodd" clip-rule="evenodd" d="M19.9609 22.3047C21.587 22.1989 22.3291 22.9541 22.1875 24.5703C21.7933 25.5945 21.0511 25.9982 19.9609 25.7812C18.9118 25.363 18.5081 24.5948 18.75 23.4766C18.9927 22.9082 19.3963 22.5176 19.9609 22.3047ZM20.1953 23.5547C19.7475 24.2426 19.9299 24.568 20.7422 24.5312C21.1837 23.8663 21.0014 23.5408 20.1953 23.5547Z" fill="#B9110C"/>
<path opacity="0.933" fill-rule="evenodd" clip-rule="evenodd" d="M24.6484 22.3047C26.2745 22.1989 27.0166 22.9541 26.875 24.5703C26.4808 25.5945 25.7386 25.9982 24.6484 25.7812C23.5993 25.363 23.1956 24.5948 23.4375 23.4766C23.6802 22.9082 24.0838 22.5176 24.6484 22.3047ZM24.8828 23.5547C24.435 24.2426 24.6174 24.568 25.4297 24.5312C25.8712 23.8663 25.6889 23.5408 24.8828 23.5547Z" fill="#B9110C"/>
<path opacity="0.933" fill-rule="evenodd" clip-rule="evenodd" d="M29.3359 22.3047C30.962 22.1989 31.7041 22.9541 31.5625 24.5703C31.1683 25.5945 30.4261 25.9982 29.3359 25.7812C28.2868 25.363 27.8831 24.5948 28.125 23.4766C28.3677 22.9082 28.7713 22.5176 29.3359 22.3047ZM29.5703 23.5547C29.1225 24.2426 29.3049 24.568 30.1172 24.5312C30.5587 23.8663 30.3764 23.5408 29.5703 23.5547Z" fill="#B9110C"/>
</g>
<defs>
<clipPath id="clip0_11_215">
<rect width="40" height="40" fill="white"/>
</clipPath>
</defs>
</svg>
