<svg width="40" height="40" viewBox="0 0 40 40" fill="none" xmlns="http://www.w3.org/2000/svg">
<g clip-path="url(#clip0_10_108)">
<path d="M18.1328 0.749998C14.9219 1.28906 11.9688 3.49219 10.4766 6.46875C9.71875 7.98437 9.375 9.46875 9.375 11.25C9.375 13.1016 9.71094 14.5156 10.5234 16.1172C11.9688 18.9531 14.4609 20.8828 17.7344 21.6797C18.5156 21.875 20.7813 21.9219 21.7344 21.7656C26.1875 21.0312 29.7266 17.5391 30.5 13.0859C30.6641 12.1797 30.6641 10.3203 30.5078 9.42187C30.0781 6.96093 28.6719 4.53906 26.8125 3.03906C25.3203 1.83594 23.6484 1.0625 21.8359 0.749998C20.9609 0.593748 19.0469 0.593748 18.1328 0.749998ZM21.4063 2.03906C23.3516 2.32031 25.1406 3.23437 26.5625 4.67969C27.7969 5.92187 28.5938 7.28906 29.0391 8.96093C29.2344 9.66406 29.25 9.84375 29.25 11.25C29.25 12.6562 29.2344 12.8359 29.0391 13.5391C28.7813 14.5156 28.4063 15.375 27.875 16.2344C27.3125 17.1562 25.9063 18.5625 24.9844 19.125C21.8594 21.0469 18.1406 21.0469 15.0156 19.125C14.0938 18.5625 12.6875 17.1562 12.125 16.2344C10.2031 13.1172 10.2031 9.38281 12.125 6.26562C12.6875 5.34375 14.0938 3.9375 15.0156 3.375C17 2.14844 19.1172 1.71094 21.4063 2.03906Z" fill="#B9110C"/>
<path d="M19.375 4.58594V5.42969L19.0391 5.07812C18.8594 4.88281 18.5469 4.53906 18.3438 4.3125L17.9688 3.89062L17.5 4.30469C17.2344 4.53125 17.0391 4.75781 17.0469 4.8125C17.0625 4.86719 17.5859 5.49219 18.2266 6.20312L19.375 7.49219V8.57031V9.64844L17.4219 7.69531L15.4688 5.74219L14.9844 6.23438L14.4922 6.71875L16.4453 8.67188L18.3984 10.625H17.1875H15.9766L14.7891 9.4375L13.5938 8.24219L13.1094 8.73438L12.6172 9.21875L13.3203 9.92188L14.0234 10.625H13.2578H12.5V11.25V11.875H13.2578H14.0234L13.3203 12.5781L12.6172 13.2812L13.1094 13.7656L13.5938 14.2578L14.7891 13.0625L15.9766 11.875H17.1875H18.3984L16.7578 13.5156L15.1172 15.1562L15.6094 15.6406L16.0938 16.1328L17.7344 14.4922L19.375 12.8516V13.9297V15.0078L18.2266 16.2969C17.5859 17.0078 17.0625 17.6328 17.0469 17.6875C17.0391 17.7422 17.2344 17.9688 17.5 18.1953L17.9688 18.6094L18.3438 18.1875C18.5469 17.9609 18.8594 17.6172 19.0391 17.4219L19.375 17.0703V17.9062V18.75H20H20.625V17.9062V17.0703L20.9609 17.4219C21.1406 17.6172 21.4531 17.9609 21.6562 18.1875L22.0312 18.6094L22.5 18.1953C22.7656 17.9688 22.9609 17.7422 22.9531 17.6875C22.9375 17.6328 22.4141 17.0078 21.7812 16.2969L20.625 15.0078V13.9297V12.8516L22.2656 14.4922L23.9062 16.1328L24.3906 15.6406L24.8828 15.1562L23.2422 13.5156L21.6016 11.875H22.5H23.3984L24.5859 13.0625L25.7812 14.2578L26.2656 13.7656L26.7578 13.2812L26.0547 12.5781L25.3516 11.875H26.4297H27.5V11.25V10.625H26.4297H25.3516L26.0547 9.92188L26.7578 9.21875L26.2656 8.73438L25.7812 8.24219L24.5859 9.4375L23.3984 10.625H22.5H21.6016L23.5547 8.67188L25.5078 6.71875L25.0156 6.23438L24.5312 5.74219L22.5781 7.69531L20.625 9.64844V8.57031V7.49219L21.7812 6.20312C22.4141 5.49219 22.9375 4.86719 22.9531 4.8125C22.9609 4.75781 22.7656 4.53125 22.5 4.30469L22.0312 3.89062L21.6562 4.3125C21.4531 4.53906 21.1406 4.88281 20.9609 5.07812L20.625 5.42969V4.58594V3.75H20H19.375V4.58594Z" fill="#B9110C"/>
<path d="M11.9922 23.2422C10.4766 23.5156 9.09375 24.1328 7.85156 25.0703C7.59375 25.2578 6.75 26.0469 5.97656 26.8047C4.67968 28.0859 4.52343 28.2188 4.00781 28.4297C2.9375 28.8672 1.875 29.7812 1.34375 30.7109C0.874995 31.5391 0.679683 32.2734 0.64062 33.4453C0.60937 34.3672 0.632808 34.6406 0.812495 35.5859C1.10156 37.0781 1.36718 37.5469 2.125 37.9219C2.51562 38.1172 2.58593 38.125 3.90625 38.125H5.28906L5.47656 38.3281C6.0625 38.9688 7.08593 39.375 8.11718 39.375C9.1875 39.375 10.1094 39.0234 10.7422 38.3594L10.9687 38.125H19.6875H28.4141L28.6016 38.3281C29.1875 38.9688 30.2109 39.375 31.2344 39.375C32.3047 39.375 33.0703 39.0938 33.7891 38.4297L34.1094 38.1328L35.5937 38.1094L37.0781 38.0859L37.5859 37.8359C38.2344 37.5156 38.6797 37.0391 39.0391 36.2734C39.2969 35.75 39.3281 35.6016 39.3594 34.8906C39.3984 33.9688 39.3047 33.4219 38.9844 32.75C38.2812 31.2656 37.0937 30.1094 35.5156 29.375C34.7031 28.9922 34.3359 28.8984 32.0703 28.5234C30.1172 28.1953 29.6172 28.0781 28.9531 27.7812C28.7344 27.6797 27.2422 26.7656 25.6406 25.75C24.0391 24.7266 22.5312 23.8047 22.2812 23.6953C22.0391 23.5859 21.5078 23.4141 21.1016 23.3125C20.375 23.125 20.3359 23.125 16.4531 23.1328C13.6172 23.1406 12.3906 23.1641 11.9922 23.2422ZM20.6797 24.5625C21.5234 24.7734 22.1016 25.0938 24.9375 26.8984C26.4531 27.8594 27.9062 28.7578 28.1641 28.8906C28.9297 29.2734 29.8516 29.5156 31.875 29.8438C32.9766 30.0234 34.0469 30.25 34.4062 30.3672C34.9922 30.5703 35.0078 30.5859 34.7812 30.6406C34.4375 30.7344 34.3516 30.9453 34.3906 31.6094C34.4375 32.3281 34.7266 32.9375 35.2656 33.4844C35.8594 34.0703 36.4375 34.3203 37.3281 34.3594L38.0469 34.3906V34.6953V35H37.1484H36.25V35.625V36.25H36.8516C37.4375 36.25 37.4453 36.25 37.3125 36.3984C37.0312 36.7031 36.6406 36.8203 35.7109 36.8594C34.8594 36.8984 34.8203 36.8906 34.8828 36.75C34.9141 36.6719 34.9609 36.2422 34.9844 35.8125C35.0391 34.5312 34.7266 33.7266 33.8594 32.8906C32.375 31.4688 30.125 31.4688 28.6406 32.8906C27.7734 33.7266 27.4609 34.5312 27.5156 35.8125C27.5391 36.2422 27.5781 36.6641 27.6172 36.7344C27.6719 36.8672 27.2656 36.875 19.6875 36.875C12.1094 36.875 11.7031 36.8672 11.7578 36.7344C11.7969 36.6641 11.8359 36.2422 11.8594 35.8125C11.9141 34.5312 11.6016 33.7266 10.7344 32.8906C9.25 31.4688 7 31.4688 5.51562 32.8906C4.64843 33.7266 4.33593 34.5312 4.39062 35.8125C4.41406 36.2422 4.45312 36.6641 4.49218 36.7422C4.53906 36.8594 4.48437 36.875 3.89843 36.875C2.59375 36.875 2.42187 36.7344 2.14843 35.4375C2.03906 34.9375 1.95312 34.3516 1.95312 34.1406V33.75H2.46093C3.05468 33.75 3.44531 33.6094 3.82031 33.2578C4.28125 32.8125 4.375 32.5156 4.375 31.3438C4.375 30.3281 4.36718 30.3047 4.17187 30.1172L3.96875 29.9297L4.19531 29.8203C4.3125 29.7578 4.64062 29.6094 4.92187 29.5C5.375 29.3125 5.57812 29.1406 6.99218 27.7422C7.85156 26.8906 8.77343 26.0469 9.04687 25.8672C10.1797 25.1016 11.6562 24.5703 12.9687 24.4531C13.375 24.4219 15.1719 24.3984 16.9531 24.4141C19.6328 24.4297 20.2812 24.4531 20.6797 24.5625ZM9.10156 33.3984C9.63281 33.6328 10 33.9688 10.2812 34.4688C10.4844 34.8438 10.5078 34.9531 10.5078 35.625C10.5078 36.3047 10.4844 36.4062 10.2734 36.7891C9.84375 37.5703 9.16406 37.9766 8.23437 38.0312C7.67187 38.0625 7.53906 38.0391 7.17187 37.875C6.58593 37.6016 6.21875 37.2578 5.9375 36.7031C5.73437 36.2969 5.70312 36.1406 5.70312 35.625C5.70312 35.1094 5.73437 34.9531 5.9375 34.5469C6.53906 33.3438 7.89062 32.8594 9.10156 33.3984ZM32.2266 33.3984C32.7578 33.6328 33.125 33.9688 33.4062 34.4688C33.6094 34.8438 33.6328 34.9531 33.6328 35.625C33.6328 36.3047 33.6094 36.4062 33.3984 36.7891C32.9687 37.5703 32.2891 37.9766 31.3594 38.0312C30.7969 38.0625 30.6641 38.0391 30.2969 37.875C29.7109 37.6016 29.3437 37.2578 29.0625 36.7031C28.8594 36.2969 28.8281 36.1406 28.8281 35.625C28.8281 35.1094 28.8594 34.9531 29.0625 34.5469C29.6641 33.3438 31.0156 32.8594 32.2266 33.3984Z" fill="#B9110C"/>
<path d="M12.75 27.0391C11.9531 27.3516 11.25 28.3125 11.25 29.1016V29.375H11.9141C12.5625 29.375 12.5781 29.3672 12.5781 29.1875C12.5781 28.9297 12.8828 28.5156 13.2031 28.3281C13.4688 28.1719 13.6094 28.1641 17.1484 28.1406C19.1719 28.125 21 28.1406 21.2266 28.1641C21.7109 28.2188 22.0781 28.4531 22.2969 28.8281C22.4375 29.0625 22.4609 29.2344 22.4609 30C22.4609 30.9766 22.3672 31.2656 21.9453 31.5781C21.6094 31.8359 21.2109 31.875 18.8672 31.875H16.6016L17.3047 31.1719L18.0078 30.4688L17.5156 29.9766L17.0312 29.4922L15.7031 30.8281C13.9141 32.6172 13.9141 32.3828 15.7031 34.1719L17.0312 35.5078L17.5156 35.0234L18.0078 34.5312L17.3047 33.8281L16.6016 33.125H19.1953C22.2188 33.125 22.3594 33.1016 23.0469 32.4219C23.6328 31.8281 23.75 31.4297 23.75 30C23.75 29.0078 23.7266 28.7656 23.5859 28.3984C23.3672 27.8203 22.8047 27.2578 22.2266 27.0391C21.8047 26.8828 21.6641 26.875 17.4766 26.8828C13.3359 26.8828 13.1484 26.8906 12.75 27.0391Z" fill="#B9110C"/>
<path d="M7.30469 33.8984C6.625 34.2109 6.25 34.8359 6.25 35.6406C6.25781 36.75 7.00781 37.5 8.125 37.5C9.25 37.5 10 36.75 10 35.625C10 34.8125 9.58594 34.1641 8.89062 33.875C8.48438 33.7031 7.69531 33.7188 7.30469 33.8984ZM8.51562 35.2344C8.85156 35.5703 8.60156 36.1719 8.125 36.1719C7.82812 36.1719 7.57812 35.9219 7.57812 35.625C7.57812 35.3281 7.82812 35.0781 8.125 35.0781C8.25781 35.0781 8.42969 35.1484 8.51562 35.2344Z" fill="#B9110C"/>
<path d="M30.4297 33.8984C29.75 34.2109 29.375 34.8359 29.375 35.6406C29.3828 36.75 30.1328 37.5 31.25 37.5C32.375 37.5 33.125 36.75 33.125 35.625C33.125 34.8125 32.7109 34.1641 32.0156 33.875C31.6094 33.7031 30.8203 33.7188 30.4297 33.8984ZM31.6406 35.2344C31.9766 35.5703 31.7266 36.1719 31.25 36.1719C30.9531 36.1719 30.7031 35.9219 30.7031 35.625C30.7031 35.3281 30.9531 35.0781 31.25 35.0781C31.3828 35.0781 31.5547 35.1484 31.6406 35.2344Z" fill="#B9110C"/>
</g>
<defs>
<clipPath id="clip0_10_108">
<rect width="40" height="40" fill="white"/>
</clipPath>
</defs>
</svg>
