<svg width="40" height="40" viewBox="0 0 40 40" fill="none" xmlns="http://www.w3.org/2000/svg">
<g clip-path="url(#clip0_9_38)">
<path d="M17.2656 0.0468788C12.8359 0.453129 8.92969 2.20313 5.82031 5.17188C1.17969 9.60157 -0.86719 16 0.359372 22.2813C1.77344 29.5625 7.32812 35.2891 14.5937 36.9609C14.9922 37.0469 15.3359 37.1094 15.3516 37.1016C15.3672 37.0859 15.4297 36.7969 15.4922 36.4609C15.6016 35.8672 15.6016 35.8594 15.4375 35.8203C15.3516 35.7969 15.0312 35.7266 14.7266 35.6641C13.4844 35.3906 11.9219 34.8047 10.6406 34.1406C5.48437 31.4375 2.07031 26.4453 1.39844 20.6328C1.27344 19.5469 1.34375 16.8438 1.52344 15.8594C2.1875 12.1719 3.85156 8.96094 6.40625 6.40625C9.14844 3.66407 12.6094 1.96094 16.4844 1.4375C17.5938 1.28907 19.9219 1.29688 21.0312 1.44532C26.875 2.25 31.8359 5.84375 34.375 11.1094C35.1797 12.7891 35.7812 14.7578 35.9766 16.4219L36.0312 16.875L36.5938 16.8281C36.8984 16.7969 37.1875 16.7578 37.2344 16.7266C37.3438 16.6641 37.1719 15.4844 36.8672 14.2188C35.2422 7.57813 29.9844 2.28125 23.3281 0.585941C22.7656 0.445316 21.8984 0.273441 21.4062 0.195316C20.5469 0.0703163 18.0156 -0.0234337 17.2656 0.0468788Z" fill="#B9110C"/>
<path d="M17.0703 2.65625C11.4766 3.29688 6.71875 6.61719 4.25 11.6016C2.92968 14.2734 2.36718 17.3516 2.66406 20.2422C3.23437 25.8594 6.59375 30.7109 11.6016 33.1641C12.8516 33.7813 14.1875 34.2422 15.4375 34.4922C16.7812 34.7656 16.6875 34.7969 16.7734 34.0781C16.8203 33.75 16.8437 33.4688 16.8359 33.4531C16.8281 33.4453 16.4297 33.3672 15.9453 33.2813C14.1484 32.9531 12.125 32.1328 10.5312 31.0781L9.6875 30.5156L11.1172 29.0703C12.375 27.7891 12.5625 27.5703 12.6406 27.2578C12.7891 26.6797 12.6562 26.3906 11.9219 25.6406C11.5781 25.2813 11.1875 24.9297 11.0547 24.8594C10.7734 24.7188 10.1797 24.7109 9.91406 24.8438C9.8125 24.8984 9.09375 25.5703 8.3125 26.3359L6.90625 27.7344L6.375 26.9375C5.17968 25.1406 4.42968 23.1953 4.03125 20.875L3.99218 20.625H6.02343C8.32031 20.625 8.48437 20.5938 8.83593 20.0234C9.00781 19.75 9.02343 19.6406 9.02343 18.7031C9.02343 17.7266 9.01562 17.6719 8.8125 17.3672C8.45312 16.8203 8.33593 16.7969 6.02343 16.7969C4.89843 16.7969 3.98437 16.7813 3.98437 16.7656C3.98437 16.7422 4.05468 16.3516 4.14843 15.8906C4.5 14.0703 5.30468 12.1016 6.34375 10.5312L6.90625 9.6875L8.35156 11.1172C9.63281 12.375 9.85156 12.5625 10.1641 12.6406C10.7656 12.7891 11.0312 12.6641 11.8516 11.8516C12.6641 11.0313 12.7891 10.7656 12.6406 10.1641C12.5625 9.85156 12.375 9.63281 11.1172 8.35156L9.6875 6.90625L10.5547 6.33594C12.1484 5.28125 14.0781 4.5 15.8906 4.14844C16.3516 4.05469 16.7422 3.98438 16.7656 3.98438C16.7812 3.98438 16.7969 4.89844 16.7969 6.02344C16.7969 8.33594 16.8203 8.45312 17.3672 8.8125C17.6719 9.01562 17.7266 9.02344 18.7031 9.02344C19.6406 9.02344 19.75 9.00781 20.0234 8.83594C20.5937 8.48438 20.625 8.32812 20.625 6.01562C20.625 4.10938 20.6328 3.97656 20.7656 4.01562C20.8359 4.03125 21.0547 4.07031 21.25 4.10156C22.4922 4.28125 24.5937 5.02344 25.8203 5.71875C26.6484 6.1875 27.6562 6.85938 27.6562 6.9375C27.6562 6.96875 27.0937 7.55469 26.4062 8.24219C24.8984 9.75 24.75 9.94531 24.7422 10.4453C24.7344 10.9531 24.875 11.1797 25.6406 11.9219C26.3906 12.6563 26.6797 12.7891 27.2578 12.6406C27.5703 12.5625 27.7969 12.375 29.0469 11.1406L30.4844 9.72656L30.6719 9.96094C31.2812 10.7031 32.1562 12.3281 32.6172 13.5547C32.7734 13.9844 32.9219 14.3516 32.9297 14.3672C32.9453 14.375 33.2266 14.3125 33.5547 14.2109C34.2266 14.0156 34.2031 14.1484 33.7734 12.9688C32.6406 9.91406 30.2969 7.00781 27.4609 5.15625C26.6172 4.60938 24.8203 3.73438 23.9062 3.4375C23.0234 3.14844 21.8281 2.85938 21.0156 2.73438C20.2109 2.61719 17.8281 2.57031 17.0703 2.65625ZM19.375 5.82031V7.73438H18.7109H18.0469V5.82031V3.90625H18.7109H19.375V5.82031ZM10.0625 9.16406L11.4062 10.5078L10.9531 10.9609L10.5078 11.4063L9.14062 10.0391L7.77343 8.67188L8.20312 8.24219C8.4375 8.00781 8.64843 7.8125 8.67187 7.8125C8.69531 7.8125 9.32031 8.42188 10.0625 9.16406ZM29.2187 8.24219L29.6484 8.67188L28.2812 10.0391L26.9141 11.4063L26.4687 10.9609L26.0156 10.5078L27.3594 9.16406C28.1016 8.42188 28.7266 7.8125 28.75 7.8125C28.7734 7.8125 28.9844 8.00781 29.2187 8.24219ZM7.73437 18.7109V19.375H5.82031H3.90625V18.7109V18.0469H5.82031H7.73437V18.7109ZM10.0391 28.2813L8.67187 29.6484L8.22656 29.1953L7.77343 28.75L9.14062 27.3828L10.5078 26.0156L10.9531 26.4609L11.4062 26.9141L10.0391 28.2813Z" fill="#B9110C"/>
<path d="M19.4297 15.5781C18.8047 15.8047 18.3828 16.2266 18.1562 16.8516C18.0703 17.0938 18.0547 18.7891 18.0469 26.0625V34.9844L17.8125 35.0781C17.4844 35.2109 17 35.7812 16.8906 36.1562C16.8281 36.3516 16.7969 37.1016 16.7969 38.2344V40H26.4453H36.0938V38.1406C36.0938 36.5156 36.0703 36.25 35.9453 35.9766C35.7969 35.6484 35.1328 35 34.9531 35C34.8594 35 34.8438 34.5312 34.8438 32.3438V29.6875H35.2656C35.5625 29.6875 35.7344 29.7344 35.875 29.8438C36.0625 29.9922 36.0781 30.0391 36.1094 31.0312C36.1406 31.7344 36.1953 32.1641 36.2734 32.3516C36.5938 33.0781 37.2656 33.5156 38.0703 33.5156C38.8672 33.5156 39.4609 33.1328 39.8125 32.3828L40 31.9922V26.7812C40 23.2734 39.9688 21.4375 39.9141 21.1562C39.7109 20.1641 38.9766 19.1328 38.1094 18.6172C37.5 18.25 36.625 18.0469 35.6484 18.0469H34.8438V17.5938C34.8438 16.7188 34.4297 16.0234 33.7109 15.6641C33.4062 15.5156 33.1797 15.5078 26.5625 15.4922C20.9609 15.4766 19.6719 15.4922 19.4297 15.5781ZM33.3359 16.9688L33.5156 17.1328V20.8359V24.5312H26.4453H19.375V20.8594V17.1797L19.5703 16.9922L19.7578 16.7969H26.4531H33.1562L33.3359 16.9688ZM37.2266 19.6094C38.0156 19.9922 38.6719 20.9297 38.6719 21.6719V21.9375L38.0625 21.9609C37.5469 21.9844 37.3906 22.0312 37.0625 22.2266C36.2969 22.7031 36 23.5938 36.125 25.0547C36.1797 25.7344 36.3281 26.1172 36.6641 26.4688C37.0859 26.9141 37.4609 27.0703 38.1094 27.0625H38.6719V29.4766V31.8828L38.4766 32.0703C38.2734 32.2812 38.0781 32.3125 37.7891 32.1797C37.4922 32.0469 37.4219 31.7891 37.4219 30.8672C37.4219 30.4062 37.3828 29.9062 37.3281 29.7578C37.0469 28.9297 36.3906 28.4531 35.4297 28.3828L34.8438 28.3359V23.8516V19.3594L35.8438 19.3906C36.7031 19.4141 36.8906 19.4375 37.2266 19.6094ZM38.6719 24.3125C38.6719 25.3438 38.6562 25.4297 38.5 25.6016C38.2656 25.8516 37.8672 25.8438 37.6172 25.5859C37.4297 25.4062 37.4219 25.3438 37.4219 24.5312C37.4219 23.6719 37.4219 23.6562 37.6484 23.4297C37.8438 23.2422 37.9375 23.2031 38.2734 23.2031H38.6719V24.3125ZM33.5156 30.3125V34.8438H26.4453H19.375V30.3125V25.7812H26.4453H33.5156V30.3125ZM34.6562 36.3516C34.8359 36.5625 34.8438 36.625 34.8438 37.625V38.6719H26.4453H18.0469V37.7031C18.0469 37.1641 18.0781 36.6406 18.125 36.5234C18.2891 36.0859 18.0234 36.0938 26.5859 36.1172L34.4688 36.1328L34.6562 36.3516Z" fill="#B9110C"/>
<path d="M20.625 20.625V23.2031H26.4453H32.2656V20.625V18.0469H26.4453H20.625V20.625ZM30.9375 20.6641V21.9531H26.4453H21.9531V20.6641V19.375H26.4453H30.9375V20.6641Z" fill="#B9110C"/>
</g>
<defs>
<clipPath id="clip0_9_38">
<rect width="40" height="40" fill="white"/>
</clipPath>
</defs>
</svg>
