<svg width="40" height="40" viewBox="0 0 40 40" fill="none" xmlns="http://www.w3.org/2000/svg">
<path d="M12.75 6.19531C12.5859 6.375 12.5781 6.42969 12.5781 8.32813C12.5781 10.8359 12.4219 10.625 14.3203 10.625H15.7031V11.1719V11.7188H14.1484H12.6016L11.0859 13.0078L9.57812 14.2969H7.96094C6.44531 14.2969 6.33594 14.3047 6.14062 14.4609L5.9375 14.6172V16.1406V17.6563H5.39062H4.84375V16.2891C4.84375 14.9375 4.84375 14.9141 4.64844 14.7266L4.46094 14.5313H2.54688C1.5 14.5313 0.578125 14.5547 0.507812 14.5781C0.15625 14.7188 0.15625 14.6484 0.15625 21.9531V28.8438L0.382812 29.0703L0.609375 29.2969H2.53906H4.46094L4.64844 29.1016C4.84375 28.9141 4.84375 28.8906 4.84375 27.5391V26.1719H5.39062H5.9375V27.6797C5.9375 29.6016 5.84375 29.4766 7.35938 29.5313L8.45312 29.5703L8.64062 30.2031C8.89062 31.0781 9.14844 31.6328 9.64062 32.375C10.5391 33.7188 11.8828 34.7813 13.3906 35.3516C14.3281 35.7031 14.9531 35.8047 16.1328 35.8047C17.0547 35.8047 17.3438 35.7734 17.9766 35.6016C18.8359 35.375 19.7031 34.9922 20.3672 34.5547C20.9766 34.1563 21.9766 33.1953 22.3984 32.6016L22.75 32.1094H28.1719H33.6016L33.7891 31.9141C33.9766 31.7266 33.9844 31.6953 33.9844 30.5078V29.2969H34.4922H35V30.5391V31.7891L35.2031 31.9453C35.3984 32.1016 35.5078 32.1094 37.3047 32.1094C39.1016 32.1094 39.2109 32.1016 39.4062 31.9453L39.6094 31.7891V25.0859V18.3828L39.4297 18.2188C39.25 18.0547 39.1953 18.0469 37.3281 18.0469C35.5078 18.0469 35.3984 18.0547 35.2031 18.2109L35 18.3672V19.6172V20.8594H34.4922H33.9844V19.5859C33.9844 17.8359 34.1094 17.9375 31.9922 17.9063L30.3984 17.8828L30.375 16.2891C30.3516 14.8359 30.3359 14.6875 30.1953 14.5313C30.1094 14.4297 29.4453 13.8438 28.7109 13.2188C27.9844 12.5938 27.3047 12.0156 27.2031 11.9219C27.0312 11.7734 26.8984 11.7578 25.6016 11.7188L24.1797 11.6797V11.1719V10.6641L25.6016 10.6406L27.0234 10.625L27.1797 10.4141C27.3359 10.2266 27.3438 10.1094 27.3438 8.32031C27.3438 6.52344 27.3359 6.41406 27.1797 6.21875L27.0234 6.01563H19.9688H12.9141L12.75 6.19531ZM26.0938 8.32031V9.375H19.9609H13.8281V8.32031V7.26563H19.9609H26.0938V8.32031ZM22.8906 11.1719V11.6406H19.9219H16.9531V11.1719V10.7031H19.9219H22.8906V11.1719ZM27.8125 14.0859L29.1016 15.1953L29.1406 17.0078C29.1719 18.5859 29.1953 18.8438 29.3125 18.9844C29.4453 19.1328 29.5391 19.1406 31.0938 19.1406H32.7344V23.5938V28.0469H28.3203H23.9141L23.875 27.7891C23.8516 27.6563 23.8203 27.3281 23.7969 27.0703C23.7109 26.0703 23.1953 24.7109 22.5156 23.6797C22.1328 23.0938 21.0938 22.0547 20.4844 21.6484C19.8281 21.2031 19.0234 20.8359 18.1641 20.5781C17.5234 20.3828 17.3438 20.3594 16.1719 20.3594C15.2031 20.3594 14.75 20.3906 14.3438 20.4922C13.1484 20.7969 12.1094 21.3203 11.0859 22.1563L10.4688 22.6641V18.9219V15.1719L11.7656 14.0703L13.0625 12.9688H19.7969H26.5234L27.8125 14.0859ZM9.21875 19.9688V24.3984L8.95312 25.0703C8.55469 26.0469 8.42969 26.5781 8.38281 27.4766L8.33594 28.2813H7.76562H7.1875V21.9141V15.5469H8.20312H9.21875V19.9688ZM3.59375 21.9141V28.0469H2.5H1.40625V21.9141V15.7813H2.5H3.59375V21.9141ZM5.84375 21.9297L5.82031 24.8828H5.35156H4.88281L4.85938 21.9297L4.84375 18.9844H5.35156H5.85938L5.84375 21.9297ZM38.3594 25.0781V30.8594H37.3047H36.25V25.0781V19.2969H37.3047H38.3594V25.0781ZM17.4062 21.6875C18.6953 21.9531 19.8906 22.625 20.8359 23.625C23.4062 26.3281 23.1406 30.7109 20.2578 33.0859C19.8281 33.4375 18.7969 34.0625 18.6406 34.0625C18.6172 34.0625 18.5938 33.7031 18.5938 33.2578V32.4609L19.1094 32.0781C21.4219 30.3672 21.7656 26.9297 19.8438 24.75C19.3984 24.25 18.5859 23.6719 18.3203 23.6719C18.2266 23.6719 18.0547 23.7422 17.9375 23.8359L17.7344 23.9922V25.7344V27.4688L16.9375 27.9219L16.1328 28.3672L15.8594 28.2422C15.7109 28.1641 15.3516 27.9688 15.0625 27.8047L14.5391 27.5L14.5156 25.7734L14.4922 24.0469L14.2734 23.8594C13.9844 23.6094 13.7812 23.625 13.3203 23.9141C11.6719 24.9609 10.7656 27.2031 11.2109 29.1797C11.4609 30.3281 12.2109 31.4766 13.1328 32.125L13.5938 32.4531V33.2578C13.5938 33.7031 13.5703 34.0625 13.5391 34.0625C13.4062 34.0625 12.4062 33.4531 11.9688 33.1094C10.8281 32.2031 9.98438 30.7656 9.6875 29.2422C9.5625 28.6172 9.625 26.9922 9.79688 26.3672C10.4297 24.0547 12.3984 22.1875 14.7344 21.6953C15.4531 21.5391 16.6641 21.5313 17.4062 21.6875ZM35 25.0781V28.0469H34.4922H33.9844V25.0781V22.1094H34.4922H35V25.0781ZM13.2812 26.8984C13.2812 27.7344 13.3125 28.1328 13.3828 28.2266C13.5547 28.4531 15.8516 29.6875 16.1016 29.6875C16.2578 29.6875 16.7656 29.4453 17.5547 29C18.5625 28.4375 18.7891 28.2813 18.875 28.0703C18.9531 27.8984 18.9844 27.4688 18.9844 26.7422C18.9922 25.5078 19.0078 25.5 19.5234 26.5625C19.7969 27.1328 19.8047 27.1641 19.8047 28.0859C19.8047 29.0078 19.7969 29.0313 19.5156 29.625C19.1719 30.3438 18.6797 30.8984 18.0078 31.3281C17.7344 31.4922 17.4844 31.6797 17.4453 31.7344C17.4141 31.7891 17.3672 32.4297 17.3438 33.1641L17.3047 34.4922L16.7031 34.5625C16.3594 34.6016 15.8281 34.6016 15.4922 34.5625L14.8828 34.4922L14.8438 33.1641C14.8203 32.4297 14.7734 31.7891 14.7422 31.7344C14.7031 31.6797 14.4531 31.4922 14.1797 31.3281C13.2812 30.7578 12.6562 29.8984 12.4219 28.9141C12.2969 28.3984 12.3594 27.3672 12.5312 26.875C12.6797 26.4688 13.1328 25.7031 13.2188 25.7031C13.25 25.7031 13.2812 26.2422 13.2812 26.8984ZM32.7344 30.0781V30.8594H28.0391C23.6016 30.8594 23.3438 30.8516 23.3984 30.7188C23.4297 30.6484 23.5234 30.2969 23.6172 29.9375L23.7891 29.2969H28.2578H32.7344V30.0781Z" fill="#B9110C"/>
<path d="M23.4609 14.5312C22.9453 14.7109 22.6875 14.8984 22.2344 15.3984C21.7187 15.9766 21.5391 16.5078 21.5781 17.3828C21.6094 17.9609 21.6484 18.1641 21.8359 18.5391C22.1094 19.0938 22.6719 19.6328 23.2656 19.9062C23.6562 20.0859 23.8047 20.1172 24.4531 20.1172C25.1094 20.1094 25.25 20.0859 25.6562 19.8906C26.5781 19.4375 27.2187 18.5078 27.3203 17.4844C27.4375 16.1797 26.5547 14.8672 25.2891 14.4922C24.75 14.3359 23.9609 14.3438 23.4609 14.5312ZM25.1172 15.7734C25.6797 16.0234 26.0937 16.6562 26.0937 17.2656C26.0937 18.1328 25.3203 18.8984 24.4453 18.9062C23.9453 18.9062 23.3281 18.5859 23.0625 18.1797C22.8828 17.9062 22.8516 17.7812 22.8516 17.2578C22.8516 16.7109 22.875 16.625 23.0859 16.3203C23.5391 15.6797 24.3984 15.4453 25.1172 15.7734Z" fill="#B9110C"/>
</svg>
