<svg width="40" height="40" viewBox="0 0 40 40" fill="none" xmlns="http://www.w3.org/2000/svg">
<g clip-path="url(#clip0_9_55)">
<path d="M16.6641 0.109375C14.9531 0.523438 13.6719 2.14844 13.6719 3.90625C13.6719 6.01562 15.4688 7.8125 17.5781 7.8125C19.6875 7.8125 21.4844 6.01562 21.4844 3.90625C21.4844 1.76562 19.6641 -0.0234375 17.5156 0.0078125C17.2734 0.0078125 16.8906 0.0546875 16.6641 0.109375ZM18.625 1.82812C19.4453 2.22656 19.8828 2.95312 19.8828 3.90625C19.8828 4.57031 19.7188 5.01562 19.3047 5.49219C18.6641 6.21094 17.4531 6.4375 16.5469 5.99219C15.2969 5.375 14.8672 3.82031 15.625 2.63281C16.25 1.64844 17.5469 1.30469 18.625 1.82812Z" fill="#B9110C"/>
<path d="M29.5391 6.14062C27.7109 6.44531 26.0625 7.29688 24.7187 8.63281C23.9141 9.42969 23.3281 10.2578 22.8672 11.2422C22.6953 11.6094 22.5469 11.9219 22.5391 11.9375C22.5234 11.9531 22.2578 11.8438 21.9375 11.6875C20.5078 11 19.3125 10.7422 17.6172 10.7422C15.9375 10.75 14.6172 11.0469 13.2734 11.7188C11.3672 12.6797 9.58593 14.5234 8.71875 16.4219L8.44531 17.0156L8.14843 16.9453C7.98437 16.9062 7.67187 16.875 7.44531 16.875C5.28906 16.8672 3.51562 18.6562 3.51562 20.8516V21.3047L2.92968 21.6719C-3.09944e-06 23.5312 -0.875003 27.4531 1.00781 30.3281C2.39843 32.4531 4.88281 33.5391 7.30468 33.0938C7.69531 33.0156 8.05468 32.9531 8.11718 32.9453C8.17968 32.9375 8.34375 33.125 8.48437 33.3594C9.5625 35.1328 11.3984 36.4453 13.4766 36.9219C14.3594 37.125 16.125 37.1172 16.9766 36.8984L17.5781 36.7422L17.8672 37.2969C18.2969 38.125 19.2187 39.0234 20.0781 39.4453C21.5859 40.1797 23.1016 40.1797 24.6094 39.4453C25.5391 38.9844 26.4062 38.1172 26.8672 37.1875C27.3047 36.2969 27.4531 35.5703 27.3984 34.5703L27.3516 33.7891L27.6562 33.5781C28.1641 33.2266 28.5469 32.5938 28.7109 31.8516C28.7344 31.7188 28.8437 31.5781 28.9922 31.5C30.9609 30.4062 32.3203 28.6797 32.8672 26.5781C33.0234 25.9766 33.0625 25.6094 33.0703 24.7891L33.0859 23.7578L33.6328 23.5859C37.875 22.3047 40.5469 18.0547 39.8828 13.6484C39.1406 8.72656 34.4453 5.32031 29.5391 6.14062ZM32.8359 7.80469C35.4609 8.49219 37.4922 10.5312 38.2187 13.2031C38.4687 14.1406 38.4687 15.8281 38.2109 16.7969C37.4062 19.875 34.6953 22.1641 31.5859 22.3828C30.75 22.4453 30.4922 22.5312 30.3516 22.8203C30.2031 23.0938 30.2031 23.3125 30.3437 23.5859C30.4844 23.8516 30.7656 23.9844 31.2109 23.9844H31.5625V24.5078C31.5625 27.0234 30.1406 29.2734 27.9297 30.2812C27.375 30.5391 27.1875 30.7812 27.1875 31.2344C27.1875 31.4297 27.1172 31.7344 27.0312 31.9219C26.875 32.2344 26.6562 32.3906 25.9922 32.6484C25.875 32.6953 25.7266 32.8438 25.6562 32.9922C25.5391 33.2422 25.5391 33.2969 25.6953 33.9062C25.8828 34.6484 25.8984 35.0391 25.7734 35.6406C25.3906 37.4375 23.625 38.6641 21.8203 38.3828C20.3516 38.1562 19.2969 37.1641 18.9062 35.6328C18.7969 35.2188 18.5 34.9219 18.1797 34.9219C18.0547 34.9219 17.6953 35.0156 17.3906 35.125C16.2344 35.5469 15.2266 35.6406 14.0547 35.4297C12.2031 35.1094 10.625 33.9844 9.69531 32.3359C9.26562 31.5625 8.90625 30.2812 8.90625 29.4922C8.90625 29.0469 8.77343 28.7656 8.50781 28.625C8.24218 28.4922 8.03906 28.4844 7.77343 28.6094C7.27343 28.8359 7.22656 29.5 7.60156 31.3516C7.625 31.4688 6.89843 31.625 6.24218 31.6328C5.60156 31.6406 4.66406 31.4062 4.03906 31.0781C3.40625 30.75 2.45312 29.7969 2.125 29.1641C1.1875 27.375 1.46875 25.2422 2.83593 23.7812C3.08593 23.5078 3.46875 23.1797 3.6875 23.0391C4.0625 22.7969 4.08593 22.7891 4.16406 22.9375C4.21093 23.0156 4.39062 23.2344 4.57031 23.4141C4.92187 23.7734 5.19531 23.8359 5.57812 23.6641C5.8125 23.5547 6.04687 23.1016 5.98437 22.8672C5.96093 22.7734 5.80468 22.5078 5.625 22.2734C5.0625 21.5312 4.9375 20.625 5.29687 19.8281C5.88281 18.4922 7.60937 18.0312 8.80468 18.8984C9.54687 19.4375 9.84375 19.4766 10.2031 19.0859C10.4922 18.7734 10.4609 18.3594 10.125 17.9844L9.85937 17.6953L10.1172 17.1328C11 15.2266 12.6016 13.6875 14.5312 12.8906C15.6406 12.4297 16.3203 12.3047 17.6953 12.3125C18.7812 12.3203 19.0469 12.3438 19.7109 12.5234C20.1328 12.6328 20.8516 12.9062 21.2969 13.1328L22.1172 13.5312L22.0625 14.3047C22.0234 14.8516 22.0391 15.1406 22.1094 15.3125C22.2109 15.5703 22.5391 15.7812 22.8125 15.7812C23.0859 15.7812 23.4062 15.5703 23.5 15.3359C23.5469 15.2188 23.6016 14.8203 23.625 14.4453C23.8516 11.0234 26.5078 8.19531 30.0391 7.63281C30.5781 7.53906 32.2344 7.64844 32.8359 7.80469Z" fill="#B9110C"/>
<path d="M17.0391 18.2109C16.5078 18.3047 15.7422 18.7109 15.5 19.0234C15.3984 19.1563 15.2344 19.4375 15.1406 19.6563C14.9688 20.0313 14.9609 20.0938 14.9609 22.6563C14.9609 25.6406 14.9766 25.75 15.6016 26.4141C16.0078 26.8516 16.5 27.0781 17.2578 27.1875C18.7422 27.3984 20.0547 26.7969 20.4844 25.7188C20.6484 25.2969 20.6563 25.1406 20.6875 22.9688C20.7188 20.5703 20.6719 20 20.3906 19.4531C20.1797 19.0391 19.6172 18.5547 19.1172 18.375C18.6016 18.1797 17.6406 18.1016 17.0391 18.2109ZM18.5391 19.7422C19.0391 20.0313 19.0625 20.1719 19.0625 22.6953C19.0625 24.7578 19.0469 24.9844 18.9141 25.2344C18.7109 25.625 18.3594 25.8047 17.8125 25.8047C17.2734 25.8047 16.9141 25.625 16.6797 25.2344C16.5313 24.9766 16.5234 24.8359 16.5234 22.6953C16.5234 20.2734 16.5391 20.1797 16.9375 19.8203C17.2813 19.5078 18.0625 19.4688 18.5391 19.7422Z" fill="#B9110C"/>
<path d="M22.7734 24.6406C22.3047 24.8438 21.9609 25.4531 22.0469 25.9141C22.0703 26.0313 22.1484 26.0547 22.4609 26.0547C22.8281 26.0547 22.8594 26.0391 22.9297 25.8125C23.0547 25.4375 23.1953 25.3125 23.5078 25.3125C24.0391 25.3125 24.2812 25.6641 24.125 26.2188C24.0625 26.4453 24 26.5 23.6875 26.5859C23.375 26.6797 23.3125 26.7266 23.2969 26.9063C23.2656 27.1875 23.4062 27.3438 23.6875 27.3438C24.0547 27.3438 24.2969 27.6484 24.2969 28.1094C24.2969 28.625 24.125 28.8359 23.6719 28.875C23.2344 28.9219 22.9531 28.7813 22.8516 28.4766C22.7266 28.1094 22.6641 28.0469 22.4219 28.0469C22.0312 28.0469 21.9531 28.1172 21.9531 28.4688C21.9531 29.1641 22.4844 29.6094 23.3984 29.6719C23.8828 29.7031 24.0312 29.6797 24.3906 29.5156C24.9062 29.2734 25.1484 28.9297 25.2109 28.3359C25.2656 27.7969 25.1328 27.3906 24.8125 27.1406L24.5547 26.9375L24.7344 26.7578C25.1094 26.3828 25.1641 25.4531 24.8438 25C24.7578 24.8828 24.5469 24.7266 24.375 24.6563C23.9922 24.5078 23.1016 24.4922 22.7734 24.6406Z" fill="#B9110C"/>
<path d="M7.46875 6.25C6.97656 6.375 6.27344 6.79688 5.92969 7.16406C5.75781 7.35156 5.5 7.74219 5.36719 8.03125C5.14062 8.50781 5.11719 8.625 5.11719 9.30469C5.11719 10.0078 5.13281 10.0781 5.40625 10.6406C5.75781 11.3516 6.21094 11.7891 6.9375 12.1328C7.41406 12.3594 7.53125 12.3828 8.20312 12.3828C8.875 12.3828 8.99219 12.3594 9.46875 12.1328C10.1953 11.7891 10.6484 11.3516 11 10.6406C11.2734 10.0781 11.2891 10.0078 11.2891 9.29688C11.2891 8.58594 11.2734 8.51563 11 7.95313C10.4688 6.89063 9.53125 6.25781 8.375 6.20313C8.04688 6.1875 7.64062 6.21094 7.46875 6.25ZM9.0625 8C9.52344 8.30469 9.72656 8.69531 9.72656 9.29688C9.72656 9.90625 9.52344 10.2891 9.03906 10.6094C8.60156 10.8984 7.84375 10.9141 7.39844 10.6328C6.80469 10.2656 6.53125 9.53906 6.71094 8.84375C6.82031 8.44531 7.29688 7.92969 7.67188 7.82031C8.08594 7.69531 8.72656 7.77344 9.0625 8Z" fill="#B9110C"/>
</g>
<defs>
<clipPath id="clip0_9_55">
<rect width="40" height="40" fill="white"/>
</clipPath>
</defs>
</svg>
