<svg width="40" height="40" viewBox="0 0 40 40" fill="none" xmlns="http://www.w3.org/2000/svg">
<g clip-path="url(#clip0_9_66)">
<path d="M18.1484 0.0781212C13.5156 0.531246 9.125 2.60156 5.85157 5.88281C2.71875 9.02343 0.796878 12.9531 0.140628 17.5391C-0.015622 18.6328 0.00781555 21.4766 0.187503 22.6953C0.492191 24.8672 1.13282 26.9219 2.11719 28.8984C4.70313 34.1094 9.39063 37.8984 15.0625 39.3672C19.0391 40.3984 23.3984 40.1328 27.25 38.6328C29.9766 37.5625 32.2422 36.0547 34.3359 33.8984C35.9375 32.2578 36.9922 30.7422 37.9688 28.7187C38.8984 26.7969 39.4531 25.0156 39.7813 22.9297C40.0234 21.3672 40.0234 18.6328 39.7813 17.0703C39.4453 14.9375 38.8906 13.1641 37.9297 11.2109C36.8984 9.10156 35.8281 7.60937 34.1094 5.89843C30.9453 2.73437 27.2734 0.882809 22.8125 0.195309C21.8438 0.0468712 19.1719 -0.0156288 18.1484 0.0781212ZM22.6563 1.52343C23.7031 1.67968 25.1875 2.04687 26.2031 2.39062C28.0078 3.01562 30.4219 4.39062 31.9453 5.65625C33.9063 7.29687 35.6875 9.58593 36.8047 11.9141C38.0859 14.5937 38.625 16.9844 38.625 20C38.625 21.8984 38.5078 22.8828 38.0859 24.5703C36.4219 31.1641 31.1641 36.4219 24.5703 38.0859C22.8828 38.5078 21.8984 38.625 20 38.625C18.1016 38.625 17.1172 38.5078 15.4297 38.0859C11.6719 37.1406 8.16407 34.9297 5.65625 31.9453C4.83594 30.9609 3.85938 29.4375 3.24219 28.1797C2.36719 26.375 1.82813 24.625 1.50782 22.5781C1.32032 21.3437 1.32032 18.6797 1.50782 17.4219C2.02344 14.0156 3.39844 10.8594 5.51563 8.24218C6.17188 7.42968 7.60938 6 8.40625 5.375C11.1953 3.17187 14.6406 1.78125 18.2422 1.41406C19.2109 1.3125 21.6641 1.375 22.6563 1.52343Z" fill="#B9110C"/>
<path d="M18.75 2.71093C13.3828 3.11718 8.54687 5.96093 5.5078 10.5078C4.57812 11.8984 3.43749 14.4531 3.43749 15.1406C3.4453 15.7656 3.91405 16.3906 4.53124 16.5703C5.1953 16.7734 8.02343 16.3125 9.82812 15.7031C10.5234 15.4766 10.7031 15.4375 10.6641 15.5391C10.6328 15.6094 10.4375 16.1875 10.2266 16.8203C9.64062 18.5703 9.14062 20.7422 8.86718 22.7422L8.8203 23.1094L8.21874 22.875C7.4453 22.5703 6.09374 22.2344 5.18749 22.1094C4.17187 21.9687 3.67968 22.1484 3.32812 22.7656C3.01562 23.2969 3.01562 23.5 3.28124 24.5078C4.72655 29.9062 8.77343 34.3203 14.1016 36.2891C14.7344 36.5234 14.9609 36.5703 15.2891 36.5469C15.8281 36.5 16.2578 36.2109 16.4844 35.7422C16.6484 35.3984 16.6562 35.3047 16.625 34.2109C16.5937 33.3516 16.6094 33.0469 16.6797 33.0469C16.7266 33.0469 17.1328 33.1016 17.5859 33.1719C18.6953 33.3516 21.3047 33.3516 22.4141 33.1719C22.8672 33.1016 23.2734 33.0469 23.3203 33.0469C23.3828 33.0469 23.3984 33.3828 23.375 34.2734L23.3437 35.5078L23.5781 35.8672C23.8516 36.2891 24.3437 36.5625 24.8359 36.5625C25.2656 36.5625 26.4219 36.1328 27.6953 35.5078C32.1172 33.3281 35.4531 29.2578 36.7266 24.4766C36.9844 23.5 36.9844 23.2969 36.6719 22.7656C36.3203 22.1484 35.8281 21.9687 34.8125 22.1094C33.9062 22.2344 32.5547 22.5703 31.7812 22.875L31.1797 23.1094L31.1328 22.7422C30.8594 20.7422 30.3594 18.5703 29.7734 16.8203C29.5625 16.1875 29.3672 15.6094 29.3359 15.5391C29.2969 15.4375 29.4766 15.4766 30.1719 15.7031C31.9766 16.3047 34.7422 16.7578 35.4453 16.5703C36.0781 16.3984 36.5547 15.7812 36.5625 15.1406C36.5625 14.7344 36.1641 13.6484 35.5469 12.3828C34.9609 11.1797 34.3203 10.1562 33.5156 9.14062C32.9062 8.38281 31.3594 6.84375 30.6641 6.32031C27.2344 3.70312 22.9141 2.39843 18.75 2.71093ZM21.3672 4.0625C25.2734 4.42187 28.8047 6.10156 31.4844 8.875C33.0625 10.5078 34.3047 12.4844 35.0312 14.5234C35.3125 15.2969 35.2891 15.3359 34.6328 15.2734C32.3594 15.0469 31.2187 14.7422 28.4375 13.6094C25.7187 12.5078 23.1953 12.0312 20 12.0312C16.8281 12.0312 14.2578 12.5078 11.5625 13.6094C9.71874 14.3594 9.18749 14.5469 8.14062 14.8125C6.93749 15.1094 4.95312 15.375 4.8203 15.2422C4.62499 15.0469 5.72655 12.6094 6.61718 11.25C8.96874 7.67187 12.6328 5.17968 16.7891 4.32812C18.3672 4.00781 19.8281 3.92187 21.3672 4.0625ZM23.1641 13.5469C24.3047 13.7344 25.5391 14.0234 26.5859 14.3516C27.6562 14.6797 27.5312 14.5391 28.1172 16.1094C28.8281 18.0234 29.3828 20.1875 29.6797 22.1641C29.9375 23.8359 29.9531 23.7031 29.4141 24.0391C26.9219 25.5781 24.9844 28 24.0156 30.7734C23.875 31.1797 23.7109 31.5391 23.6562 31.5703C23.4609 31.6719 22.1328 31.875 21.1094 31.9609C20.375 32.0156 19.7344 32.0156 18.9609 31.9609C17.8984 31.8828 16.5547 31.6797 16.3437 31.5625C16.2891 31.5391 16.1406 31.2109 16.0156 30.8516C15.7344 30.0156 15.2812 29.0234 14.8437 28.3203C13.8672 26.7266 12.125 24.9844 10.5547 24.0312C10.0469 23.7187 10.0781 23.9062 10.2812 22.3828C10.6016 20.0703 11.4687 16.9297 12.3047 15.0391L12.4766 14.6406L13.4062 14.3516C14.9062 13.8828 16.0156 13.6562 18.0469 13.4062C18.7187 13.3281 22.4062 13.4297 23.1641 13.5469ZM5.95312 23.6016C8.22655 24.0469 10.2578 25.1641 12.0312 26.9453C14.1172 29.0391 15.1641 31.3594 15.2891 34.2031C15.3359 35.1797 15.3281 35.2344 15.1875 35.2344C14.9062 35.2344 12.9609 34.3906 12.1016 33.8984C9.07812 32.1641 6.64062 29.4219 5.27343 26.2109C4.79687 25.1016 4.35937 23.5937 4.46874 23.4609C4.56249 23.3516 4.77343 23.3672 5.95312 23.6016ZM35.5312 23.4531C35.5859 23.5234 35.5312 23.8203 35.3516 24.4531C33.9531 29.2969 30.1797 33.3359 25.4609 35.0391C24.6094 35.3437 24.6562 35.4062 24.7109 34.1562C24.7812 32.6094 25.0625 31.4531 25.7344 30.0391C27 27.375 29.3437 25.2266 32.1797 24.1328C33.0312 23.8047 34.4219 23.4687 35.3594 23.3672C35.4062 23.3672 35.4844 23.4062 35.5312 23.4531Z" fill="#B9110C"/>
<path d="M18.6953 14.8359C16.7344 15.3672 15.3281 16.7969 14.8281 18.7578C14.7031 19.2812 14.6719 19.5625 14.7031 20.2266C14.8047 22.4609 16.1484 24.2734 18.2734 25.0312C18.8984 25.2578 19.0234 25.2734 20 25.2734C20.9766 25.2734 21.1016 25.2578 21.7266 25.0312C23.3281 24.4609 24.4844 23.2969 25.0547 21.6797C25.25 21.1172 25.2734 20.9531 25.2734 20C25.2734 19.0156 25.2578 18.8984 25.0313 18.2734C24.4609 16.6641 23.2813 15.5 21.6797 14.9531C20.8281 14.6641 19.5313 14.6172 18.6953 14.8359ZM20.9609 16.1328C23.1094 16.6875 24.4141 18.8672 23.8672 20.9766C23.0859 23.9531 19.3359 24.9922 17.1875 22.8203C15.0234 20.6328 16.0234 16.9375 18.9922 16.1406C19.5469 15.9922 20.4063 15.9844 20.9609 16.1328Z" fill="#B9110C"/>
<path d="M19.2109 17.4609C16.9141 18.1953 16.7109 21.3828 18.8984 22.4141C19.2656 22.5859 19.4453 22.6172 20 22.6172C20.7969 22.6172 21.3516 22.3984 21.875 21.875C22.3984 21.3516 22.6172 20.7969 22.6172 20C22.6172 19.2031 22.3984 18.6484 21.875 18.125C21.2187 17.4687 20.0781 17.1797 19.2109 17.4609ZM20.625 18.8516C21.0234 19.0625 21.3281 19.5547 21.3281 20C21.3281 20.6797 20.6797 21.3281 20 21.3281C19.3203 21.3281 18.6719 20.6797 18.6719 20C18.6719 19.5547 18.9766 19.0625 19.375 18.8516C19.8047 18.625 20.1953 18.625 20.625 18.8516Z" fill="#B9110C"/>
<path d="M6.90625 17.5312C6.74219 17.6719 6.6875 17.7812 6.6875 18.0078C6.6875 18.2344 6.74219 18.3437 6.90625 18.4844C7.08594 18.6406 7.20312 18.6719 7.66406 18.6719C8.17188 18.6719 8.23438 18.6562 8.44531 18.4453C8.6875 18.2031 8.72656 17.9844 8.57812 17.7109C8.42188 17.4141 8.26562 17.3516 7.67969 17.3437C7.20312 17.3437 7.08594 17.3672 6.90625 17.5312Z" fill="#B9110C"/>
<path d="M31.6328 17.4453C31.2734 17.7187 31.2422 18.1328 31.5547 18.4453C31.7656 18.6562 31.8281 18.6719 32.3359 18.6719C32.7969 18.6719 32.9141 18.6406 33.0937 18.4844C33.2578 18.3437 33.3125 18.2344 33.3125 18.0078C33.3125 17.7812 33.2578 17.6719 33.0937 17.5312C32.9141 17.3672 32.7969 17.3437 32.3203 17.3437C32 17.3437 31.7031 17.3906 31.6328 17.4453Z" fill="#B9110C"/>
<path d="M3.5547 18.8672C3.28907 19.125 3.28907 19.5469 3.56251 19.8125C3.75001 20 3.79689 20.0156 4.39064 19.9844C4.9297 19.9609 5.03126 19.9375 5.16407 19.7734C5.37501 19.5156 5.35939 19.1016 5.1172 18.8672C4.95314 18.6953 4.85939 18.6719 4.33595 18.6719C3.81251 18.6719 3.71876 18.6953 3.5547 18.8672Z" fill="#B9110C"/>
<path d="M34.8828 18.8672C34.6406 19.1016 34.625 19.5156 34.836 19.7734C34.9688 19.9375 35.0703 19.9609 35.6094 19.9844C36.2031 20.0156 36.25 20 36.4375 19.8125C36.711 19.5469 36.711 19.125 36.4453 18.8672C36.2813 18.6953 36.1875 18.6719 35.6641 18.6719C35.1406 18.6719 35.0469 18.6953 34.8828 18.8672Z" fill="#B9110C"/>
<path d="M6.3672 20.0938C5.96095 20.3125 5.88283 20.8125 6.21095 21.1328C6.37502 21.3047 6.46877 21.3281 6.9922 21.3281C7.51564 21.3281 7.60939 21.3047 7.77345 21.1328C8.03908 20.875 8.03908 20.4531 7.77345 20.1953C7.60939 20.0234 7.51564 20 7.0547 20C6.76564 20 6.45314 20.0469 6.3672 20.0938Z" fill="#B9110C"/>
<path d="M32.2266 20.1953C32.0938 20.3203 32.0312 20.4688 32.0312 20.6641C32.0312 20.8594 32.0938 21.0078 32.2266 21.1328C32.3906 21.3047 32.4844 21.3281 33.0078 21.3281C33.5312 21.3281 33.625 21.3047 33.7891 21.1328C33.9844 20.9453 34.0391 20.625 33.9375 20.3516C33.8516 20.1328 33.4688 20 32.9297 20C32.4844 20 32.3906 20.0234 32.2266 20.1953Z" fill="#B9110C"/>
</g>
<defs>
<clipPath id="clip0_9_66">
<rect width="40" height="40" fill="white"/>
</clipPath>
</defs>
</svg>
