<svg width="40" height="40" viewBox="0 0 40 40" fill="none" xmlns="http://www.w3.org/2000/svg">
<path d="M11.5312 0.125004C10.7031 0.328129 10.0859 0.679691 9.45312 1.32032C8.5 2.28125 8.125 3.17969 8.125 4.49219C8.125 5.65625 8.5 6.65625 9.21875 7.45313L9.60938 7.875V9.38281V10.8984L9.11719 11.1328C8.20312 11.5703 8.04688 12.0313 8.04688 14.2734V15.625H7.58594C6.98438 15.625 6.39062 15.9219 6.05469 16.3984C5.83594 16.7031 5.82031 16.7891 5.82031 17.3828C5.82031 17.9766 5.83594 18.0625 6.05469 18.3672C6.20312 18.5781 6.44531 18.7891 6.71094 18.9219L7.125 19.1406H8.75781H10.3906V20.0391C10.3906 20.6875 10.3672 20.9375 10.2969 20.9375C10.2422 20.9375 9.91406 20.8984 9.57031 20.8438C8.80469 20.7344 8.375 20.8281 7.9375 21.1875C7.14844 21.8359 7.09375 23.1406 7.82812 23.7969C8.14844 24.0938 8.51562 24.2266 9.4375 24.3828C9.9375 24.4688 10.3672 24.5547 10.4062 24.5781C10.4375 24.6016 10.4688 25.0234 10.4688 25.5234V26.4297L10.0625 26.375C8.92969 26.2266 8.82812 26.2266 8.47656 26.3672C7.71875 26.6563 7.32031 27.2188 7.32031 28.0078C7.32031 28.7188 7.64062 29.25 8.26562 29.5703C8.41406 29.6406 8.9375 29.7656 9.4375 29.8516C9.9375 29.9375 10.3672 30.0234 10.4062 30.0469C10.4375 30.0703 10.4688 30.7891 10.4688 31.6406V33.1953L10.1094 33.5313C8.78906 34.75 8.50781 36.8047 9.44531 38.2734C10.6953 40.2188 13.4141 40.5703 15.0859 39.0078C16.6562 37.5469 16.6641 35.0313 15.1094 33.6016L14.7656 33.2813V32.0313C14.7656 31.1094 14.7891 30.7813 14.8594 30.7813C14.9141 30.7813 15.2422 30.8203 15.5859 30.875C16.3516 30.9844 16.7812 30.8906 17.2188 30.5313C17.6328 30.1875 17.8359 29.7422 17.8359 29.1797C17.8359 28.4688 17.5156 27.9375 16.8906 27.6172C16.6875 27.5156 15.125 27.1875 14.8281 27.1875C14.7891 27.1875 14.7656 26.7656 14.7656 26.25C14.7656 25.5703 14.7891 25.3125 14.8594 25.3125C14.9141 25.3125 15.2422 25.3516 15.5859 25.4063C16.3516 25.5156 16.7812 25.4219 17.2188 25.0625C17.6328 24.7188 17.8359 24.2734 17.8359 23.7109C17.8359 23 17.5156 22.4688 16.8906 22.1484C16.6875 22.0469 15.125 21.7188 14.8281 21.7188C14.7891 21.7188 14.7656 21.1406 14.7656 20.4297V19.1406H16.3906C18.0156 19.1406 18.0234 19.1406 18.4453 18.9219C18.7188 18.7813 18.9453 18.5938 19.1016 18.375C19.3125 18.0625 19.3359 17.9766 19.3359 17.3828C19.3359 16.7891 19.3125 16.7031 19.1016 16.3906C18.7734 15.9297 18.1719 15.625 17.5625 15.625H17.1094V14.2734C17.1094 12.0313 16.9531 11.5781 16.0312 11.1328L15.5547 10.8984L15.5469 9.39063V7.875L15.9453 7.4375C16.6719 6.61719 17.0312 5.65625 17.0312 4.49219C17.0312 3.17969 16.6562 2.28125 15.7031 1.32032C15.0547 0.664066 14.4531 0.328129 13.5859 0.117191C12.9688 -0.0234337 12.1406 -0.0234337 11.5312 0.125004ZM13.7734 1.40625C14.6406 1.73438 15.3516 2.47657 15.7031 3.42188C15.8438 3.78907 15.8672 4 15.8438 4.61719C15.8203 5.29688 15.7969 5.41407 15.5234 5.95313C14.3125 8.41407 10.8438 8.41407 9.63281 5.95313C9.34375 5.375 9.33594 5.33594 9.33594 4.49219C9.33594 3.64844 9.34375 3.60938 9.63281 3.03125C10.2344 1.80469 11.3828 1.13282 12.7344 1.20313C13.0781 1.21875 13.5078 1.30469 13.7734 1.40625ZM11.6797 8.875C11.9375 8.92969 12.3438 8.98438 12.5781 8.98438C12.9766 8.98438 13.8516 8.82813 14.1641 8.71094C14.2891 8.65625 14.2969 8.74219 14.2969 9.79688V10.9375H12.5781H10.8594V9.79688V8.65625L11.0391 8.71094C11.1328 8.74219 11.4219 8.8125 11.6797 8.875ZM15.6875 12.2656C15.8516 12.4219 15.8594 12.4844 15.8594 14.0234V15.625H12.5781H9.29688V14.0234C9.29688 12.4844 9.30469 12.4219 9.46875 12.2656C9.63281 12.1172 9.72656 12.1094 12.5781 12.1094C15.4297 12.1094 15.5234 12.1172 15.6875 12.2656ZM18.0312 16.9531C18.2656 17.1719 18.2656 17.5938 18.0312 17.8125C17.8672 17.9688 17.7891 17.9688 12.5781 17.9688C7.36719 17.9688 7.28906 17.9688 7.125 17.8125C7.01562 17.7031 6.95312 17.5547 6.95312 17.3828C6.95312 17.2109 7.01562 17.0625 7.125 16.9531C7.28906 16.7969 7.36719 16.7969 12.5781 16.7969C17.7891 16.7969 17.8672 16.7969 18.0312 16.9531ZM13.5156 20.3125C13.5156 20.9531 13.4922 21.4844 13.4609 21.4844C13.3828 21.4844 12.0469 21.2578 11.8203 21.2109C11.6484 21.1719 11.6406 21.1406 11.6406 20.1563V19.1406H12.5781H13.5156V20.3125ZM12.7188 22.5469C14.6797 22.875 16.3672 23.1875 16.4531 23.2422C16.6641 23.375 16.7422 23.6797 16.6406 23.9375C16.4766 24.375 16.4688 24.375 12.4844 23.7109C9.21094 23.1641 8.77344 23.0703 8.61719 22.9141C8.51562 22.8203 8.4375 22.6484 8.4375 22.5391C8.4375 22.2969 8.75781 21.9531 8.98438 21.9531C9.07031 21.9531 10.75 22.2188 12.7188 22.5469ZM12.4609 24.8828C13.6484 25.0859 13.5156 24.9375 13.5156 26.0156C13.5156 26.5313 13.4922 26.9531 13.4609 26.9531C13.3828 26.9531 12.0469 26.7266 11.8203 26.6797C11.6484 26.6406 11.6406 26.6094 11.6406 25.7031C11.6406 25.1875 11.6641 24.7656 11.7031 24.7656C11.7344 24.7656 12.0781 24.8203 12.4609 24.8828ZM12.7188 28.0156C14.6797 28.3438 16.3672 28.6563 16.4531 28.7109C16.6641 28.8438 16.7422 29.1484 16.6406 29.4063C16.4766 29.8438 16.4688 29.8438 12.4844 29.1797C9.21094 28.6328 8.77344 28.5391 8.61719 28.3828C8.51562 28.2891 8.4375 28.1172 8.4375 28.0078C8.4375 27.7656 8.75781 27.4219 8.98438 27.4219C9.07031 27.4219 10.75 27.6875 12.7188 28.0156ZM12.4609 30.3516C12.8516 30.4219 13.2422 30.4922 13.3438 30.5078C13.5078 30.5469 13.5156 30.5781 13.5156 31.5859V32.6172H12.5781H11.6406V31.4219C11.6406 30.7734 11.6641 30.2344 11.7031 30.2344C11.7344 30.2344 12.0781 30.2891 12.4609 30.3516ZM13.6016 33.9766C14.125 34.2266 14.5391 34.6094 14.8047 35.0859C15.0234 35.4766 15.0391 35.5703 15.0391 36.2891C15.0391 37.0078 15.0234 37.1016 14.8047 37.4922C14.5391 37.9688 14.1328 38.3516 13.6016 38.6016C13.0781 38.8594 12.0625 38.8594 11.5547 38.6094C10.6406 38.1563 10.1484 37.4453 10.0938 36.4844C10.0781 36.1641 10.1016 35.7578 10.1484 35.5859C10.3438 34.8438 10.9766 34.1875 11.7812 33.8828C12.2734 33.7031 13.1094 33.7422 13.6016 33.9766Z" fill="#B9110C"/>
<path d="M11.9844 2.42188C11.5469 2.55469 10.9922 2.99219 10.7422 3.39062C10.5469 3.71875 10.5 3.875 10.4766 4.39062C10.4531 4.92969 10.4766 5.05469 10.6562 5.42969C10.8828 5.88281 11.1562 6.15625 11.6719 6.42969C12.125 6.67188 13.0312 6.67188 13.4844 6.42969C14.3125 5.99219 14.6875 5.39062 14.6875 4.49219C14.6875 3.59375 14.3047 2.98438 13.4844 2.5625C13.125 2.38281 12.3594 2.30469 11.9844 2.42188ZM13.0156 3.64062C13.3359 3.79688 13.5156 4.10156 13.5156 4.49219C13.5156 4.88281 13.3359 5.1875 13.0156 5.34375C12.6797 5.5 12.4766 5.5 12.1406 5.34375C11.4766 5.02344 11.4687 3.96875 12.125 3.64844C12.4531 3.48438 12.6797 3.48438 13.0156 3.64062Z" fill="#B9110C"/>
<path d="M12.0078 34.6406C11.5625 34.8047 11.2031 35.1172 11.0156 35.5078C10.875 35.7969 10.8516 35.9688 10.875 36.4063C10.9141 37.1016 11.1797 37.5078 11.7969 37.8359C12.1719 38.0313 12.2891 38.0547 12.6797 38.0234C13.2422 37.9766 13.7578 37.6797 14.0469 37.25C14.2344 36.9609 14.2578 36.8516 14.2578 36.2813C14.2578 35.6953 14.2344 35.6094 14.0235 35.2969C13.586 34.6641 12.7266 34.3828 12.0078 34.6406ZM12.9531 35.8594C13.3203 36.2031 13.0703 36.875 12.5781 36.875C12.2813 36.875 12.0313 36.6094 12.0313 36.2891C12.0313 35.9688 12.2813 35.7031 12.5781 35.7031C12.6875 35.7031 12.8594 35.7734 12.9531 35.8594Z" fill="#B9110C"/>
<path d="M26.375 0.125004C25.5469 0.328129 24.9297 0.679691 24.2969 1.32032C23.3438 2.28125 22.9688 3.17969 22.9688 4.49219C22.9688 5.65625 23.3438 6.65625 24.0625 7.45313L24.4531 7.875V9.38281V10.8984L23.9609 11.1328C23.0469 11.5703 22.8906 12.0313 22.8906 14.2734V15.625H22.4297C21.8281 15.625 21.2344 15.9219 20.8984 16.3984C20.6797 16.7031 20.6641 16.7891 20.6641 17.3828C20.6641 17.9766 20.6797 18.0625 20.8984 18.3672C21.0469 18.5781 21.2891 18.7891 21.5547 18.9219L21.9688 19.1406H23.6016H25.2344V20.4297C25.2344 21.1406 25.2109 21.7188 25.1797 21.7188C24.875 21.7188 23.3125 22.0469 23.1094 22.1484C21.9844 22.7266 21.8047 24.2578 22.7812 25.0625C23.2188 25.4219 23.6484 25.5156 24.4141 25.4063C24.7578 25.3516 25.0859 25.3125 25.1406 25.3125C25.2109 25.3125 25.2344 25.5703 25.2344 26.25C25.2344 26.7656 25.2109 27.1875 25.1797 27.1875C24.875 27.1875 23.3125 27.5156 23.1094 27.6172C21.9844 28.1953 21.8047 29.7266 22.7812 30.5313C23.2188 30.8906 23.6484 30.9844 24.4141 30.875C24.7578 30.8203 25.0859 30.7813 25.1406 30.7813C25.2109 30.7813 25.2344 31.1094 25.2344 32.0313V33.2813L24.8906 33.6016C23.625 34.7578 23.3672 36.8281 24.2891 38.2734C25.5391 40.2188 28.2578 40.5703 29.9297 39.0078C31.4922 37.5469 31.5 35.0234 29.9531 33.6016L29.6094 33.2813V31.6406C29.6094 30.7344 29.6328 30 29.6719 30C29.9688 30 31.5312 29.6719 31.7344 29.5703C32.8594 28.9922 33.0391 27.4609 32.0625 26.6563C31.625 26.2969 31.1953 26.2031 30.4297 26.3125C30.0859 26.3672 29.7578 26.4063 29.7031 26.4063C29.6328 26.4063 29.6094 26.1484 29.6094 25.4688C29.6094 24.9531 29.6328 24.5313 29.6719 24.5313C29.9688 24.5313 31.5312 24.2031 31.7344 24.1016C32.8594 23.5234 33.0391 21.9922 32.0625 21.1875C31.625 20.8281 31.1953 20.7344 30.4297 20.8438C30.0859 20.8984 29.7578 20.9375 29.7031 20.9375C29.6328 20.9375 29.6094 20.6875 29.6094 20.0391V19.1406H31.2344C32.8594 19.1406 32.8672 19.1406 33.2891 18.9219C33.5625 18.7813 33.7891 18.5938 33.9453 18.375C34.1562 18.0625 34.1797 17.9766 34.1797 17.3828C34.1797 16.7891 34.1562 16.7031 33.9453 16.3906C33.6172 15.9297 33.0156 15.625 32.4062 15.625H31.9531V14.2734C31.9531 12.0313 31.7969 11.5781 30.875 11.1328L30.3984 10.8984L30.3906 9.39063V7.875L30.7891 7.4375C31.5156 6.61719 31.875 5.65625 31.875 4.49219C31.875 3.17969 31.5 2.28125 30.5469 1.32032C29.8984 0.664066 29.2969 0.328129 28.4297 0.117191C27.8125 -0.0234337 26.9844 -0.0234337 26.375 0.125004ZM28.6172 1.40625C29.4844 1.73438 30.1953 2.47657 30.5469 3.42188C30.6875 3.78907 30.7109 4 30.6875 4.61719C30.6641 5.29688 30.6406 5.41407 30.3672 5.95313C29.1562 8.41407 25.6875 8.41407 24.4766 5.95313C24.1875 5.375 24.1797 5.33594 24.1797 4.49219C24.1797 3.64844 24.1875 3.60938 24.4766 3.03125C25.0781 1.80469 26.2266 1.13282 27.5781 1.20313C27.9219 1.21875 28.3516 1.30469 28.6172 1.40625ZM26.5234 8.875C26.7812 8.92969 27.1875 8.98438 27.4219 8.98438C27.8203 8.98438 28.6953 8.82813 29.0078 8.71094C29.1328 8.65625 29.1406 8.74219 29.1406 9.79688V10.9375H27.4219H25.7031V9.79688V8.65625L25.8828 8.71094C25.9766 8.74219 26.2656 8.8125 26.5234 8.875ZM30.5312 12.2656C30.6953 12.4219 30.7031 12.4844 30.7031 14.0234V15.625H27.4219H24.1406V14.0234C24.1406 12.4844 24.1484 12.4219 24.3125 12.2656C24.4766 12.1172 24.5703 12.1094 27.4219 12.1094C30.2734 12.1094 30.3672 12.1172 30.5312 12.2656ZM32.875 16.9531C32.9844 17.0625 33.0469 17.2109 33.0469 17.3828C33.0469 17.5547 32.9844 17.7031 32.875 17.8125C32.7109 17.9688 32.6328 17.9688 27.4219 17.9688C22.2109 17.9688 22.1328 17.9688 21.9688 17.8125C21.7344 17.5938 21.7344 17.1719 21.9688 16.9531C22.1328 16.7969 22.2109 16.7969 27.4219 16.7969C32.6328 16.7969 32.7109 16.7969 32.875 16.9531ZM28.4375 20.1563C28.4375 20.7109 28.4297 21.1719 28.4219 21.1719C28.4062 21.1719 27.9922 21.2422 27.5 21.3281C27.0078 21.4141 26.5781 21.4844 26.5469 21.4844C26.5078 21.4844 26.4844 20.9531 26.4844 20.3125V19.1406H27.4609H28.4375V20.1563ZM31.3672 22.1484C31.6094 22.3828 31.6172 22.6875 31.3828 22.9141C31.2344 23.0703 30.7891 23.1641 27.5781 23.6953C25.5781 24.0313 23.8828 24.2969 23.8047 24.2969C23.6016 24.2969 23.2812 23.9453 23.2812 23.7266C23.2812 23.6172 23.3438 23.4531 23.4297 23.3516C23.5625 23.1875 23.8828 23.1172 27.1172 22.5703C29.0703 22.2422 30.7812 21.9688 30.9219 21.9609C31.1016 21.9531 31.2422 22.0156 31.3672 22.1484ZM28.4375 25.7031C28.4375 26.2188 28.4297 26.6406 28.4219 26.6406C28.4062 26.6406 27.9922 26.7109 27.5 26.7969C27.0078 26.8828 26.5781 26.9531 26.5469 26.9531C26.4922 26.9531 26.4531 25.0859 26.5078 25.0703C26.7031 25.0234 28.1328 24.7813 28.2656 24.7734C28.4375 24.7656 28.4375 24.7813 28.4375 25.7031ZM31.3672 27.6172C31.6094 27.8516 31.6172 28.1563 31.3828 28.3828C31.2344 28.5391 30.7891 28.6328 27.5781 29.1641C25.5781 29.5 23.8828 29.7656 23.8047 29.7656C23.6016 29.7656 23.2812 29.4141 23.2812 29.1953C23.2812 29.0859 23.3438 28.9219 23.4297 28.8203C23.5625 28.6563 23.8828 28.5859 27.1172 28.0391C29.0703 27.7109 30.7812 27.4375 30.9219 27.4297C31.1016 27.4219 31.2422 27.4844 31.3672 27.6172ZM28.3594 31.4219V32.6172H27.4219H26.4844V31.5781C26.4844 31.0156 26.4922 30.5469 26.5078 30.5391C26.6562 30.5078 28.125 30.25 28.2266 30.2422C28.3438 30.2344 28.3594 30.3438 28.3594 31.4219ZM28.4453 33.9766C28.9688 34.2266 29.3828 34.6094 29.6484 35.0859C29.8672 35.4766 29.8828 35.5703 29.8828 36.2891C29.8828 37.0078 29.8672 37.1016 29.6484 37.4922C29.3828 37.9688 28.9766 38.3516 28.4453 38.6016C27.9219 38.8594 26.9062 38.8594 26.3984 38.6094C25.4844 38.1563 24.9922 37.4453 24.9375 36.4844C24.9219 36.1641 24.9453 35.7578 24.9922 35.5859C25.1875 34.8438 25.8203 34.1875 26.625 33.8828C27.1172 33.7031 27.9531 33.7422 28.4453 33.9766Z" fill="#B9110C"/>
<path d="M26.8281 2.42188C26.3906 2.55469 25.8359 2.99219 25.5859 3.39062C25.3906 3.71875 25.3437 3.875 25.3203 4.39062C25.2969 4.92969 25.3203 5.05469 25.5 5.42969C25.7266 5.88281 26 6.15625 26.5156 6.42969C26.9687 6.67188 27.875 6.67188 28.3281 6.42969C29.1562 5.99219 29.5312 5.39062 29.5312 4.49219C29.5312 3.59375 29.1484 2.98438 28.3281 2.5625C27.9687 2.38281 27.2031 2.30469 26.8281 2.42188ZM27.8594 3.64062C28.1797 3.79688 28.3594 4.10156 28.3594 4.49219C28.3594 4.88281 28.1797 5.1875 27.8594 5.34375C27.5234 5.5 27.3203 5.5 26.9844 5.34375C26.3203 5.02344 26.3125 3.96875 26.9687 3.64844C27.2969 3.48438 27.5234 3.48438 27.8594 3.64062Z" fill="#B9110C"/>
<path d="M26.8516 34.6406C26.4063 34.8047 26.0469 35.1172 25.8594 35.5078C25.7188 35.7969 25.6953 35.9688 25.7188 36.4063C25.7578 37.1016 26.0235 37.5078 26.6406 37.8359C27.0156 38.0313 27.1328 38.0547 27.5235 38.0234C28.086 37.9766 28.6016 37.6797 28.8906 37.25C29.0781 36.9609 29.1016 36.8516 29.1016 36.2813C29.1016 35.6953 29.0781 35.6094 28.8672 35.2969C28.4297 34.6641 27.5703 34.3828 26.8516 34.6406ZM27.7969 35.8594C28.1641 36.2031 27.9141 36.875 27.4219 36.875C27.125 36.875 26.875 36.6094 26.875 36.2891C26.875 35.9688 27.125 35.7031 27.4219 35.7031C27.5313 35.7031 27.7031 35.7734 27.7969 35.8594Z" fill="#B9110C"/>
</svg>
