<svg width="40" height="40" viewBox="0 0 40 40" fill="none" xmlns="http://www.w3.org/2000/svg">
<path d="M32.6953 3.94531C32.5312 4.10156 32.5 4.21094 32.5 4.57031V5H24.625C16.0078 5 15.6484 5.01562 13.9062 5.45312C11.1719 6.14844 8.875 7.44531 6.90625 9.40625C4.50781 11.8047 3.01562 14.8828 2.61719 18.2813C2.52344 19.0859 2.5 20.6641 2.5 27.125V35H2.07031C1.71094 35 1.60156 35.0313 1.44531 35.1953C1.25 35.3828 1.25 35.3984 1.25 36.875C1.25 38.3516 1.25 38.3672 1.44531 38.5547L1.63281 38.75H6.25H10.8672L11.0547 38.5547C11.3125 38.3047 11.3125 37.9453 11.0547 37.6953L10.8672 37.5H6.67969H2.5V36.875V36.25H6.67969H10.8672L11.0547 36.0547C11.3125 35.8047 11.3125 35.4453 11.0547 35.1953C10.8984 35.0313 10.7891 35 10.4297 35H10V34.0234C10 33.4844 10.0156 33.0469 10.0312 33.0469C10.0469 33.0469 10.4922 33.2578 11.0234 33.5078C15.6484 35.7266 21.0312 35.4453 25.3906 32.7578C30.7891 29.4219 33.5156 22.9766 32.1406 16.7969C31.9219 15.8438 31.4297 14.3438 31.2188 14.0234C30.9609 13.6328 30.3359 13.7109 30.1562 14.1484C30.0703 14.3516 30.0938 14.4609 30.3359 15.1016C30.6328 15.875 30.9531 17.1094 31.1094 18.0469C31.2344 18.8125 31.2344 21.1953 31.1016 21.9922C30.7578 24.1172 30.0312 25.9531 28.8203 27.7813C28.1641 28.7656 26.6406 30.3516 25.7031 31.0313C20.5859 34.7578 13.9141 34.6406 8.89844 30.7266C8.39844 30.3359 8.13281 30.2969 7.85156 30.5859C7.63281 30.7969 7.59375 31.1328 7.76562 31.3672C7.82031 31.4531 8.07031 31.6641 8.3125 31.8359L8.75 32.1484V33.5703V35H6.25H3.75V30.5V26L4.13281 26.7734C4.58594 27.6641 5.47656 29.0391 5.91406 29.5078C6.28906 29.9141 6.60938 29.9609 6.91406 29.6484C7.20312 29.3672 7.16406 29.1016 6.76562 28.6016C4.19531 25.3203 3.21875 21.1797 4.0625 17.1406C5.14844 11.9141 9.41406 7.64844 14.625 6.5625C16.0391 6.26562 16.6016 6.25 24.6328 6.25H32.5V8.75V11.25H28.0078H23.5078L23.3203 11.4453C23.0625 11.6953 23.0625 12.0547 23.3203 12.3047L23.5078 12.5H28.0078H32.5V12.9297C32.5 13.2891 32.5312 13.3984 32.6953 13.5547L32.8828 13.75H35.625H38.3672L38.5547 13.5547L38.75 13.3672V10.9375V8.50781L38.5547 8.32031C38.3047 8.0625 37.9453 8.0625 37.6953 8.32031L37.5 8.50781V10.5078V12.5H35.625H33.75V8.75V5H35.625H37.5V5.74219C37.5 6.42969 37.5156 6.50781 37.6953 6.67969C37.8125 6.80469 37.9766 6.875 38.125 6.875C38.2734 6.875 38.4375 6.80469 38.5547 6.67969C38.7422 6.5 38.75 6.46094 38.75 5.3125C38.75 4.16406 38.7422 4.125 38.5547 3.94531L38.3672 3.75H35.625H32.8828L32.6953 3.94531Z" fill="#B9110C"/>
<path d="M16.3672 8.17969C13.4141 8.53125 10.9063 9.75781 8.94532 11.8047C6.95313 13.875 5.8125 16.5 5.64844 19.3828C5.60157 20.2109 5.60157 20.2188 5.80469 20.4219C6.0625 20.6797 6.42188 20.6953 6.67188 20.4453C6.82813 20.2891 6.85938 20.1563 6.89844 19.4453C7.23438 13.9766 11.4531 9.74219 16.9141 9.40625C17.6563 9.35938 17.7891 9.32813 17.9453 9.17188C18.1875 8.92969 18.1797 8.5625 17.9297 8.32031C17.7656 8.14844 17.6797 8.125 17.1719 8.13281C16.8594 8.14063 16.5 8.16406 16.3672 8.17969Z" fill="#B9110C"/>
<path d="M16.0938 11.3672C12.6094 11.9453 9.84375 14.5234 8.96875 18.0078C8.71875 19.0234 8.71875 20.9766 8.96875 21.9922C9.96875 25.9766 13.4609 28.75 17.5 28.75C19.375 28.75 21.4609 28.0234 22.9375 26.8438C25.6172 24.7266 26.8125 21.1875 25.9766 17.8516C25.8047 17.1719 25.6484 16.9922 25.2344 16.9922C24.9609 16.9922 24.8672 17.0312 24.7422 17.2031L24.5859 17.4141L24.7734 18.1797C25.0391 19.2578 25.0391 20.9062 24.7812 21.875C23.7031 25.8672 19.7891 28.2656 15.8203 27.3672C14.0703 26.9766 12.4062 25.875 11.3594 24.4062C10.9453 23.8281 10.3828 22.6484 10.2109 21.9922C9.59375 19.6953 10.1172 17.1875 11.5938 15.3438C13.4297 13.0469 16.4844 12.0156 19.3047 12.7344C20.0234 12.9141 21.1875 13.4375 21.7578 13.8281C22.25 14.1641 23.0547 14.9297 23.4062 15.3906C23.75 15.8438 24.0078 15.9609 24.3516 15.8203C24.6562 15.6875 24.7891 15.3516 24.6484 15.0312C24.4766 14.6328 23.6875 13.7734 22.9844 13.2109C21.9141 12.3516 20.6016 11.7266 19.2656 11.4375C18.4844 11.2656 16.9062 11.2266 16.0938 11.3672Z" fill="#B9110C"/>
<path d="M14.3359 14.6016C12.5625 15.6328 12.3516 15.8125 12.4531 16.1953C12.4766 16.2891 12.7969 16.6953 13.1641 17.1016C13.5312 17.5 13.8203 17.8516 13.7969 17.8672C13.7812 17.8906 13.3594 17.8125 12.8594 17.7031C11.75 17.4531 11.6797 17.4531 11.4453 17.6953C11.2656 17.875 11.25 17.9375 11.25 18.7109C11.25 19.4844 11.2656 19.5469 11.4453 19.7266C11.8672 20.1484 12.5 19.8438 12.5 19.2109C12.5 18.9844 12.5312 18.8984 12.6016 18.9219C12.6484 18.9453 13.0859 19.0391 13.5547 19.1406L14.4141 19.3203V20V20.6719L13.0078 20.9766C11.4609 21.3125 11.25 21.4219 11.25 21.875C11.25 22.1562 11.5469 22.5 11.7969 22.5C11.8828 22.5 12.3672 22.4062 12.8594 22.2969C13.3594 22.1875 13.7812 22.1094 13.7969 22.1328C13.8203 22.1484 13.5312 22.5 13.1641 22.8984C12.7969 23.3047 12.4766 23.7109 12.4531 23.8047C12.3516 24.1875 12.5625 24.3672 14.3516 25.3984C15.5469 26.0859 16.1719 26.4062 16.3281 26.4062C16.7109 26.4062 16.8828 26.1484 17.1875 25.1328C17.3359 24.6328 17.4766 24.2188 17.5 24.2188C17.5234 24.2188 17.6797 24.6641 17.8438 25.2031C18.3281 26.75 18.3438 26.75 20.6641 25.3984C22.4375 24.3672 22.6484 24.1875 22.5469 23.8047C22.5234 23.7109 22.2031 23.3047 21.8359 22.8984C21.4688 22.5 21.1797 22.1484 21.2031 22.1328C21.2188 22.1094 21.6406 22.1875 22.1406 22.2969C23.25 22.5469 23.3203 22.5469 23.5547 22.3047L23.75 22.1172V20V17.8828L23.5547 17.6953C23.3203 17.4531 23.25 17.4531 22.1406 17.7031C21.6406 17.8125 21.2188 17.8906 21.1953 17.8672C21.1797 17.8438 21.4297 17.5312 21.7578 17.1719C22.5469 16.3281 22.6016 16.2344 22.5391 15.9453C22.4766 15.6484 22.4375 15.625 20.4922 14.5C19.4141 13.8906 18.8281 13.5938 18.6719 13.5938C18.2891 13.5938 18.1172 13.8516 17.8125 14.8672C17.6641 15.3672 17.5234 15.7812 17.5 15.7812C17.4766 15.7812 17.3203 15.3359 17.1562 14.7969C16.6719 13.25 16.6641 13.25 14.3359 14.6016ZM16.2734 16.1562L16.5469 17.0391L16.3438 17.1172C16.2266 17.1641 15.9609 17.3047 15.7578 17.4375L15.3828 17.6797L14.8203 17.0703C14.5078 16.7344 14.2188 16.3984 14.1641 16.3281C14.0859 16.2188 14.2031 16.1328 14.9844 15.6797C15.4844 15.3906 15.9141 15.1875 15.9453 15.2188C15.9766 15.25 16.125 15.6719 16.2734 16.1562ZM20.5312 15.9844L20.9453 16.2344L20.3438 16.8828C20.0156 17.2422 19.7109 17.5703 19.6797 17.6094C19.6484 17.6484 19.4531 17.5703 19.2422 17.4375C19.0391 17.3047 18.7734 17.1641 18.6562 17.1172L18.4531 17.0391L18.7266 16.1562C18.875 15.6719 19.0156 15.2422 19.0391 15.2109C19.0703 15.1562 19.6406 15.4453 20.5312 15.9844ZM18.0781 18.2188C18.75 18.4219 19.375 19.2812 19.375 20C19.375 20.9688 18.4688 21.875 17.5 21.875C16.5312 21.875 15.625 20.9688 15.625 20C15.625 19.5078 15.8047 19.1094 16.2109 18.7109C16.7578 18.1562 17.3438 18.0078 18.0781 18.2188ZM22.5 20.0078C22.5 20.8594 22.4766 21.1016 22.4062 21.0781C22.3516 21.0547 21.9219 20.9609 21.4453 20.8594L20.5859 20.6797V20V19.3203L21.4844 19.125C21.9766 19.0156 22.4062 18.9219 22.4453 18.9141C22.4766 18.9062 22.5 19.3984 22.5 20.0078ZM15.7266 22.5469C15.8906 22.6562 16.1406 22.7969 16.2891 22.8594L16.5469 22.9688L16.2734 23.8438C16.125 24.3281 15.9766 24.75 15.9453 24.7812C15.9062 24.8281 14.2188 23.9297 14.0859 23.7969C14.0547 23.7734 15.3359 22.3516 15.3906 22.3438C15.4141 22.3438 15.5625 22.4375 15.7266 22.5469ZM20.3047 23.0781C20.6562 23.4609 20.9297 23.7812 20.9219 23.7969C20.75 23.9453 19.0938 24.8281 19.0547 24.7891C19.0234 24.75 18.875 24.3281 18.7266 23.8516L18.4531 22.9688L18.7969 22.8125C18.9922 22.7344 19.2422 22.5859 19.3516 22.5C19.4688 22.4141 19.5859 22.3516 19.6172 22.3594C19.6406 22.375 19.9531 22.6953 20.3047 23.0781Z" fill="#B9110C"/>
<path d="M17.0703 19.5703C16.6797 19.9531 16.9531 20.625 17.5 20.625C17.6484 20.625 17.8125 20.5547 17.9297 20.4297C18.3203 20.0469 18.0469 19.375 17.5 19.375C17.3516 19.375 17.1875 19.4453 17.0703 19.5703Z" fill="#B9110C"/>
<path d="M28.3281 19.5547C28.1719 19.7109 28.1406 19.8438 28.0938 20.5859C27.7578 26.0234 23.5234 30.2578 18.0859 30.5938C17.3438 30.6406 17.2109 30.6719 17.0547 30.8281C16.8047 31.0781 16.8203 31.4375 17.0781 31.6953C17.2813 31.8984 17.2891 31.8984 18.1172 31.8516C20.9375 31.6875 23.5625 30.5703 25.5781 28.6641C27.8906 26.4766 29.1719 23.75 29.3516 20.6172C29.3984 19.7891 29.3984 19.7812 29.1953 19.5781C28.9375 19.3203 28.5781 19.3047 28.3281 19.5547Z" fill="#B9110C"/>
</svg>
